<?xml version="1.0" standalone="no"?>
 <!DOCTYPE svg PUBLIC "-//W3C//DTD SVG 1.1//EN" 
 "http://www.w3.org/Graphics/SVG/1.1/DTD/svg11.dtd"> 
<svg
  xmlns:svg="http://www.w3.org/2000/svg"
  xmlns="http://www.w3.org/2000/svg"
  xmlns:xlink="http://www.w3.org/1999/xlink"
  version="1.1"
  width="297.0022mm" height="210.0072mm" viewBox="0.0000 0.0000 297.0022 210.0072">
<title>SVG Image created as exposer-B_Cu.svg date 2025/10/29 13:42:49 </title>
  <desc>Image generated by PCBNEW </desc>
<g style="fill:#000000; fill-opacity:1.0000;stroke:#000000; stroke-opacity:1.0000;
stroke-linecap:round; stroke-linejoin:round;"
 transform="translate(0 0) scale(1 1)">
</g>
<g style="fill:#000000; fill-opacity:1.0000; 
stroke:#000000; stroke-width:0.0212; stroke-opacity:1; 
stroke-linecap:round; stroke-linejoin:round;">
<rect x="16.267857" y="15.251750" width="93.782143" height="116.823250" rx="0.000000" />
<path style="fill:#FFFFFF; fill-opacity:1.0000; stroke:none;fill-rule:evenodd;"
d="M 31.0000,68.3000
31.0000,65.7000
32.8000,65.7000
32.8000,68.3000
Z" /> 
</g>
<g style="fill:none; 
stroke:#FFFFFF; stroke-width:1.8000; stroke-opacity:1; 
stroke-linecap:round; stroke-linejoin:round;">
<path d="M34.4400 66.6000
L34.4400 67.4000
" />
<path d="M36.9800 66.6000
L36.9800 67.4000
" />
<path d="M39.5200 66.6000
L39.5200 67.4000
" />
<path d="M42.0600 66.6000
L42.0600 67.4000
" />
<path d="M44.6000 66.6000
L44.6000 67.4000
" />
<path d="M47.1400 66.6000
L47.1400 67.4000
" />
<path d="M49.6800 66.6000
L49.6800 67.4000
" />
<path d="M52.2200 66.6000
L52.2200 67.4000
" />
<path d="M54.7600 66.6000
L54.7600 67.4000
" />
<path d="M57.3000 66.6000
L57.3000 67.4000
" />
<path d="M59.8400 66.6000
L59.8400 67.4000
" />
<path d="M62.3800 66.6000
L62.3800 67.4000
" />
<path d="M64.9200 66.6000
L64.9200 67.4000
" />
<path d="M67.4600 66.6000
L67.4600 67.4000
" />
<path d="M70.0000 66.6000
L70.0000 67.4000
" />
<path style="fill:#FFFFFF; fill-opacity:1.0000; stroke:none;fill-rule:evenodd;"
d="M 84.6500,69.8500
82.9500,69.8500
82.9500,68.1500
84.6500,68.1500
Z" /> 
</g>
<g style="fill:#FFFFFF; fill-opacity:1.0000; stroke:none;">
<circle cx="86.3400" cy="69.0000" r="0.8500" /> 
</g>
<g style="fill:#FFFFFF; fill-opacity:1.0000; stroke:none;">
<circle cx="88.8800" cy="69.0000" r="0.8500" /> 
</g>
<g style="fill:#FFFFFF; fill-opacity:1.0000; stroke:none;">
<circle cx="91.4200" cy="69.0000" r="0.8500" /> 
</g>
<g style="fill:#FFFFFF; fill-opacity:1.0000; stroke:none;">
<circle cx="93.9600" cy="69.0000" r="0.8500" /> 
</g>
<g style="fill:#FFFFFF; fill-opacity:1.0000; stroke:none;">
<circle cx="96.5000" cy="69.0000" r="0.8500" /> 
<path style="fill:#FFFFFF; fill-opacity:1.0000; stroke:none;fill-rule:evenodd;"
d="M 26.0500,31.7500
26.0690,31.6543
26.1232,31.5732
26.2043,31.5190
26.3000,31.5000
28.8000,31.5000
28.8957,31.5190
28.9768,31.5732
29.0310,31.6543
29.0500,31.7500
29.0500,34.2500
29.0310,34.3457
28.9768,34.4268
28.8957,34.4810
28.8000,34.5000
26.3000,34.5000
26.2043,34.4810
26.1232,34.4268
26.0690,34.3457
26.0500,34.2500
Z" /> 
</g>
<g style="fill:#FFFFFF; fill-opacity:1.0000; stroke:none;">
<circle cx="100.4500" cy="33.0000" r="1.5000" /> 
<path style="fill:#FFFFFF; fill-opacity:1.0000; stroke:none;fill-rule:evenodd;"
d="M 26.5000,106.5000
29.5000,106.5000
29.5000,109.5000
26.5000,109.5000
Z" /> 
</g>
<g style="fill:#FFFFFF; fill-opacity:1.0000; stroke:none;">
<circle cx="33.0000" cy="108.0000" r="1.5000" /> 
</g>
<g style="fill:#FFFFFF; fill-opacity:1.0000; stroke:none;">
<circle cx="38.0000" cy="108.0000" r="1.5000" /> 
<path style="fill:#FFFFFF; fill-opacity:1.0000; stroke:none;fill-rule:evenodd;"
d="M 90.5500,101.8000
90.6457,101.8190
90.7268,101.8732
90.7810,101.9543
90.8000,102.0500
90.8000,103.9500
90.7810,104.0457
90.7268,104.1268
90.6457,104.1810
90.5500,104.2000
89.4500,104.2000
89.3543,104.1810
89.2732,104.1268
89.2190,104.0457
89.2000,103.9500
89.2000,102.0500
89.2190,101.9543
89.2732,101.8732
89.3543,101.8190
89.4500,101.8000
Z" /> 
</g>
<g style="fill:none; 
stroke:#FFFFFF; stroke-width:1.6000; stroke-opacity:1; 
stroke-linecap:round; stroke-linejoin:round;">
<path d="M87.4600 102.6000
L87.4600 103.4000
" />
<path d="M84.9200 102.6000
L84.9200 103.4000
" />
<path d="M82.3800 102.6000
L82.3800 103.4000
" />
<path d="M79.8400 102.6000
L79.8400 103.4000
" />
<path d="M77.3000 102.6000
L77.3000 103.4000
" />
<path d="M74.7600 102.6000
L74.7600 103.4000
" />
<path d="M72.2200 102.6000
L72.2200 103.4000
" />
<path d="M72.2200 110.2200
L72.2200 111.0200
" />
<path d="M74.7600 110.2200
L74.7600 111.0200
" />
<path d="M77.3000 110.2200
L77.3000 111.0200
" />
<path d="M79.8400 110.2200
L79.8400 111.0200
" />
<path d="M82.3800 110.2200
L82.3800 111.0200
" />
<path d="M84.9200 110.2200
L84.9200 111.0200
" />
<path d="M87.4600 110.2200
L87.4600 111.0200
" />
<path d="M90.0000 110.2200
L90.0000 111.0200
" />
</g>
<g style="fill:#FFFFFF; fill-opacity:1.0000; stroke:none;">
<circle cx="42.0000" cy="59.5000" r="0.8100" /> 
</g>
<g style="fill:#FFFFFF; fill-opacity:1.0000; stroke:none;">
<circle cx="39.5000" cy="62.0000" r="0.8100" /> 
</g>
<g style="fill:#FFFFFF; fill-opacity:1.0000; stroke:none;">
<circle cx="37.0000" cy="59.5000" r="0.8100" /> 
</g>
<g style="fill:#FFFFFF; fill-opacity:1.0000; stroke:none;">
<circle cx="81.2200" cy="62.0000" r="0.8636" /> 
</g>
<g style="fill:#FFFFFF; fill-opacity:1.0000; stroke:none;">
<circle cx="83.7600" cy="62.0000" r="0.8636" /> 
</g>
<g style="fill:#FFFFFF; fill-opacity:1.0000; stroke:none;">
<circle cx="86.3000" cy="62.0000" r="0.8636" /> 
</g>
<g style="fill:#FFFFFF; fill-opacity:1.0000; stroke:none;">
<circle cx="88.8400" cy="62.0000" r="0.8636" /> 
</g>
<g style="fill:#FFFFFF; fill-opacity:1.0000; stroke:none;">
<circle cx="87.5700" cy="59.4600" r="0.8636" /> 
</g>
<g style="fill:#FFFFFF; fill-opacity:1.0000; stroke:none;">
<circle cx="90.1100" cy="59.4600" r="0.8636" /> 
</g>
<g style="fill:#FFFFFF; fill-opacity:1.0000; stroke:none;">
<circle cx="71.0600" cy="56.9200" r="0.8636" /> 
</g>
<g style="fill:#FFFFFF; fill-opacity:1.0000; stroke:none;">
<circle cx="71.0600" cy="59.4600" r="0.8636" /> 
</g>
<g style="fill:#FFFFFF; fill-opacity:1.0000; stroke:none;">
<circle cx="96.4600" cy="46.7600" r="0.8636" /> 
</g>
<g style="fill:#FFFFFF; fill-opacity:1.0000; stroke:none;">
<circle cx="99.0000" cy="46.7600" r="0.8636" /> 
</g>
<g style="fill:#FFFFFF; fill-opacity:1.0000; stroke:none;">
<circle cx="88.8400" cy="46.7600" r="0.8636" /> 
</g>
<g style="fill:#FFFFFF; fill-opacity:1.0000; stroke:none;">
<circle cx="86.3000" cy="46.7600" r="0.8636" /> 
</g>
<g style="fill:#FFFFFF; fill-opacity:1.0000; stroke:none;">
<circle cx="83.7600" cy="46.7600" r="0.8636" /> 
</g>
<g style="fill:#FFFFFF; fill-opacity:1.0000; stroke:none;">
<circle cx="81.2200" cy="46.7600" r="0.8636" /> 
</g>
<g style="fill:#FFFFFF; fill-opacity:1.0000; stroke:none;">
<circle cx="78.6800" cy="46.7600" r="0.8636" /> 
</g>
<g style="fill:#FFFFFF; fill-opacity:1.0000; stroke:none;">
<circle cx="76.1400" cy="46.7600" r="0.8636" /> 
</g>
<g style="fill:#FFFFFF; fill-opacity:1.0000; stroke:none;">
<circle cx="73.6000" cy="46.7600" r="0.8636" /> 
</g>
<g style="fill:#FFFFFF; fill-opacity:1.0000; stroke:none;">
<circle cx="71.0600" cy="46.7600" r="0.8636" /> 
</g>
<g style="fill:#FFFFFF; fill-opacity:1.0000; stroke:none;">
<circle cx="71.0600" cy="62.0000" r="0.8636" /> 
</g>
<g style="fill:#FFFFFF; fill-opacity:1.0000; stroke:none;">
<circle cx="73.6000" cy="62.0000" r="0.8636" /> 
</g>
<g style="fill:#FFFFFF; fill-opacity:1.0000; stroke:none;">
<circle cx="76.1400" cy="62.0000" r="0.8636" /> 
</g>
<g style="fill:#FFFFFF; fill-opacity:1.0000; stroke:none;">
<circle cx="78.6800" cy="62.0000" r="0.8636" /> 
<path style="fill:#FFFFFF; fill-opacity:1.0000; stroke:none;fill-rule:evenodd;"
d="M 90.5164,45.8964
92.2436,45.8964
92.2436,47.6236
90.5164,47.6236
Z" /> 
<path style="fill:#FFFFFF; fill-opacity:1.0000; stroke:none;fill-rule:evenodd;"
d="M 95.5964,61.1364
97.3236,61.1364
97.3236,62.8636
95.5964,62.8636
Z" /> 
<path style="fill:#FFFFFF; fill-opacity:1.0000; stroke:none;fill-rule:evenodd;"
d="M 70.1964,53.5164
71.9236,53.5164
71.9236,55.2436
70.1964,55.2436
Z" /> 
</g>
<g style="fill:#FFFFFF; fill-opacity:1.0000; stroke:none;">
<circle cx="99.0000" cy="62.0000" r="0.8636" /> 
</g>
<g style="fill:#FFFFFF; fill-opacity:1.0000; stroke:none;">
<circle cx="93.9200" cy="46.7600" r="0.8636" /> 
</g>
<g style="fill:#FFFFFF; fill-opacity:1.0000; stroke:none;">
<circle cx="93.9200" cy="62.0000" r="0.8636" /> 
</g>
<g style="fill:#FFFFFF; fill-opacity:1.0000; stroke:none;">
<circle cx="91.3800" cy="62.0000" r="0.8636" /> 
<path style="fill:#FFFFFF; fill-opacity:1.0000; stroke:none;fill-rule:evenodd;"
d="M 103.2504,112.2504
98.7496,112.2504
98.7496,107.7496
103.2504,107.7496
Z" /> 
</g>
<g style="fill:#FFFFFF; fill-opacity:1.0000; stroke:none;">
<circle cx="101.0000" cy="103.6500" r="2.2504" /> 
</g>
<g style="fill:#FFFFFF; fill-opacity:1.0000; stroke:none;">
<circle cx="31.0000" cy="55.0000" r="1.5000" /> 
</g>
<g style="fill:#FFFFFF; fill-opacity:1.0000; stroke:none;">
<circle cx="31.0000" cy="47.0000" r="1.5000" /> 
</g>
<g style="fill:#FFFFFF; fill-opacity:1.0000; stroke:none;">
<circle cx="49.0000" cy="47.0000" r="1.5000" /> 
</g>
<g style="fill:#FFFFFF; fill-opacity:1.0000; stroke:none;">
<circle cx="49.0000" cy="51.0000" r="1.5000" /> 
</g>
<g style="fill:none; 
stroke:#FFFFFF; stroke-width:2.2000; stroke-opacity:1; 
stroke-linecap:round; stroke-linejoin:round;">
<path d="M26.6500 46.9000
L25.3500 46.9000
" />
<path d="M26.6500 55.1000
L25.3500 55.1000
" />
<path style="fill:#FFFFFF; fill-opacity:1.0000; stroke:none;fill-rule:evenodd;"
d="M 24.7500,48.2500
27.2500,48.2500
27.2500,49.7500
24.7500,49.7500
Z" /> 
</g>
<g style="fill:none; 
stroke:#FFFFFF; stroke-width:1.5000; stroke-opacity:1; 
stroke-linecap:round; stroke-linejoin:round;">
<path d="M26.5000 51.0000
L25.5000 51.0000
" />
<path d="M26.5000 53.0000
L25.5000 53.0000
" />
</g>
<g style="fill:#FFFFFF; fill-opacity:1.0000; stroke:none;">
<circle cx="50.0000" cy="104.5000" r="1.0000" /> 
</g>
<g style="fill:#FFFFFF; fill-opacity:1.0000; stroke:none;">
<circle cx="56.5000" cy="104.5000" r="1.0000" /> 
</g>
<g style="fill:#FFFFFF; fill-opacity:1.0000; stroke:none;">
<circle cx="50.0000" cy="109.0000" r="1.0000" /> 
</g>
<g style="fill:#FFFFFF; fill-opacity:1.0000; stroke:none;">
<circle cx="56.5000" cy="109.0000" r="1.0000" /> 
</g>
<g style="fill:none; 
stroke:#FFFFFF; stroke-width:1.0000; stroke-opacity:1; 
stroke-linecap:round; stroke-linejoin:round;">
<path d="M68.5000 64.5000
L71.5000 64.5000
" />
<path d="M67.4600 65.5400
L68.5000 64.5000
" />
<path d="M36.5000 71.5000
L34.4400 69.4400
" />
<path d="M67.4600 67.0000
L67.4600 65.5400
" />
<path d="M30.0000 90.0000
L38.0000 98.0000
" />
<path d="M67.4600 67.0000
L67.4600 69.0400
" />
<path d="M65.0000 71.5000
L36.5000 71.5000
" />
<path d="M31.5000 64.0000
L30.0000 65.5000
" />
<path d="M34.4400 67.0000
L34.4400 64.0000
" />
<path d="M38.0000 98.0000
L38.0000 108.0000
" />
<path d="M71.5000 64.5000
L78.2990 71.2990
" />
<path d="M34.4400 62.0600
L34.4400 64.0000
" />
<path d="M91.3800 68.9600
L91.4200 69.0000
" />
<path d="M91.3800 62.0000
L91.3800 68.9600
" />
<path d="M78.2990 71.2990
L89.1210 71.2990
" />
<path d="M89.1210 71.2990
L91.4200 69.0000
" />
<path d="M34.4400 69.4400
L34.4400 67.0000
" />
<path d="M37.0000 59.5000
L34.4400 62.0600
" />
<path d="M30.0000 65.5000
L30.0000 90.0000
" />
<path d="M34.4400 64.0000
L31.5000 64.0000
" />
<path d="M67.4600 69.0400
L65.0000 71.5000
" />
<path d="M53.0000 113.4990
L33.4990 113.4990
" />
<path d="M25.5000 63.6127
L38.1127 51.0000
" />
<path d="M33.4990 113.4990
L30.5000 110.5000
" />
<path d="M38.1127 51.0000
L49.0000 51.0000
" />
<path d="M99.0000 73.0000
L84.0000 88.0000
" />
<path d="M54.0000 102.7990
L54.0000 113.4990
" />
<path d="M61.2213 101.0000
L55.7990 101.0000
" />
<path d="M97.5010 113.4990
L53.0000 113.4990
" />
<path d="M99.0000 62.0000
L99.0000 73.0000
" />
<path d="M30.5000 110.5000
L30.5000 106.5000
" />
<path d="M54.0000 113.4990
L53.0000 113.4990
" />
<path d="M25.5000 101.5000
L25.5000 63.6127
" />
<path d="M101.0000 110.0000
L97.5010 113.4990
" />
<path d="M74.2213 88.0000
L61.2213 101.0000
" />
<path d="M84.0000 88.0000
L74.2213 88.0000
" />
<path d="M30.5000 106.5000
L25.5000 101.5000
" />
<path d="M55.7990 101.0000
L54.0000 102.7990
" />
<path d="M31.0000 49.5000
L29.5000 51.0000
" />
<path d="M31.0000 47.0000
L31.0000 49.5000
" />
<path d="M29.5000 51.0000
L26.0000 51.0000
" />
<path d="M99.5000 28.5000
L103.5000 32.5000
" />
<path d="M90.5000 107.0000
L73.0000 107.0000
" />
<path d="M28.0000 108.0000
L29.0000 108.0000
" />
<path d="M42.0000 65.0000
L42.0000 66.9400
" />
<path d="M103.5000 32.5000
L103.5000 94.0000
" />
<path d="M100.5980 60.5490
L100.5980 73.9020
" />
<path d="M100.5980 73.9020
L71.5000 103.0000
" />
<path d="M56.5000 104.5000
L58.0000 103.0000
" />
<path d="M43.5000 61.0000
L43.5000 63.5000
" />
<path d="M70.5000 73.0000
L35.2500 73.0000
" />
<path d="M35.2500 73.0000
L32.0000 69.7500
" />
<path d="M42.0000 59.5000
L43.5000 61.0000
" />
<path d="M57.5000 28.5000
L99.5000 28.5000
" />
<path d="M71.5000 103.0000
L72.2200 103.0000
" />
<path d="M73.0000 107.0000
L72.2200 106.2200
" />
<path d="M58.0000 103.0000
L71.5000 103.0000
" />
<path d="M100.4500 33.0000
L98.0990 35.3510
" />
<path d="M24.0000 62.0000
L31.0000 55.0000
" />
<path d="M94.0000 73.0000
L70.5000 73.0000
" />
<path d="M99.5490 59.5000
L100.5980 60.5490
" />
<path d="M60.6490 35.3510
L49.0000 47.0000
" />
<path d="M96.4600 60.5400
L97.5000 59.5000
" />
<path d="M70.0000 67.0000
L70.0000 72.5000
" />
<path d="M103.5000 94.0000
L94.2500 103.2500
" />
<path d="M32.0000 67.5000
L31.9000 67.4000
" />
<path d="M96.4600 62.0000
L96.4600 60.5400
" />
<path d="M70.0000 72.5000
L70.5000 73.0000
" />
<path d="M97.5000 59.5000
L99.5490 59.5000
" />
<path d="M98.0990 35.3510
L60.6490 35.3510
" />
<path d="M72.2200 106.2200
L72.2200 103.0000
" />
<path d="M96.4600 62.0000
L96.4600 70.5400
" />
<path d="M96.4600 70.5400
L94.0000 73.0000
" />
<path d="M42.0000 66.9400
L42.0600 67.0000
" />
<path d="M43.5000 63.5000
L42.0000 65.0000
" />
<path d="M28.0000 108.0000
L24.0000 104.0000
" />
<path d="M32.0000 69.7500
L32.0000 67.5000
" />
<path d="M31.0000 55.0000
L57.5000 28.5000
" />
<path d="M99.5000 98.0000
L90.5000 107.0000
" />
<path d="M24.0000 104.0000
L24.0000 62.0000
" />
<path d="M31.9000 67.4000
L31.9000 67.0000
" />
<path d="M90.0000 110.6200
L91.7050 110.6200
" />
<path d="M91.7050 110.6200
L98.6750 103.6500
" />
<path d="M98.6750 103.6500
L101.0000 103.6500
" />
<path d="M74.7600 110.6200
L90.0000 110.6200
" />
<path d="M26.0000 49.0000
L27.5000 49.0000
" />
<path d="M28.4510 48.0490
L28.4510 33.9010
" />
<path d="M27.5000 49.0000
L28.4510 48.0490
" />
<path d="M28.4510 33.9010
L27.5500 33.0000
" />
<path d="M25.5490 48.7990
L25.7500 49.0000
" />
<path d="M62.3800 64.6200
L62.3800 67.0000
" />
<path d="M68.0000 49.8200
L68.0000 59.0000
" />
<path d="M71.0600 46.7600
L68.0000 49.8200
" />
<path d="M68.0000 59.0000
L62.3800 64.6200
" />
<path d="M72.0000 44.5000
L69.5000 44.5000
" />
<path d="M59.8400 64.1600
L59.8400 67.0000
" />
<path d="M66.0000 48.0000
L66.0000 58.0000
" />
<path d="M73.6000 46.1000
L72.0000 44.5000
" />
<path d="M69.5000 44.5000
L66.0000 48.0000
" />
<path d="M66.0000 58.0000
L59.8400 64.1600
" />
<path d="M73.6000 46.7600
L73.6000 46.1000
" />
<path d="M74.5000 43.0000
L69.0000 43.0000
" />
<path d="M64.0000 57.0000
L57.3000 63.7000
" />
<path d="M76.1400 46.7600
L76.1400 44.6400
" />
<path d="M57.3000 63.7000
L57.3000 67.0000
" />
<path d="M69.0000 43.0000
L64.0000 48.0000
" />
<path d="M64.0000 48.0000
L64.0000 57.0000
" />
<path d="M76.1400 44.6400
L74.5000 43.0000
" />
<path d="M78.6800 44.1800
L76.0000 41.5000
" />
<path d="M78.6800 46.7600
L78.6800 44.1800
" />
<path d="M76.0000 41.5000
L68.5000 41.5000
" />
<path d="M68.5000 41.5000
L44.6000 65.4000
" />
<path d="M44.6000 65.4000
L44.6000 67.0000
" />
<path d="M50.0000 58.0000
L42.6369 58.0000
" />
<path d="M41.5000 61.5000
L41.5000 63.0000
" />
<path d="M40.0000 58.0000
L39.5000 58.5000
" />
<path d="M39.5200 64.9800
L39.5200 67.0000
" />
<path d="M41.5000 63.0000
L39.5200 64.9800
" />
<path d="M42.6369 58.0000
L42.6259 57.9890
" />
<path d="M39.5000 58.5000
L39.5000 59.5000
" />
<path d="M41.3741 57.9890
L41.3631 58.0000
" />
<path d="M39.5000 59.5000
L41.5000 61.5000
" />
<path d="M41.3631 58.0000
L40.0000 58.0000
" />
<path d="M81.2200 46.7600
L81.2200 43.2200
" />
<path d="M68.0000 40.0000
L50.0000 58.0000
" />
<path d="M81.2200 43.2200
L78.0000 40.0000
" />
<path d="M78.0000 40.0000
L68.0000 40.0000
" />
<path d="M42.6259 57.9890
L41.3741 57.9890
" />
<path d="M36.9800 64.5200
L36.9800 67.0000
" />
<path d="M39.5000 62.0000
L36.9800 64.5200
" />
<path d="M64.9200 65.0800
L68.0000 62.0000
" />
<path d="M68.0000 62.0000
L71.0600 62.0000
" />
<path d="M64.9200 67.0000
L64.9200 65.0800
" />
<path d="M84.0000 58.0000
L86.0000 56.0000
" />
<path d="M84.0000 61.7600
L84.0000 58.0000
" />
<path d="M91.0000 103.0000
L90.0000 103.0000
" />
<path d="M102.0000 92.0000
L91.0000 103.0000
" />
<path d="M74.7600 103.0000
L90.0000 103.0000
" />
<path d="M101.0000 56.0000
L102.0000 57.0000
" />
<path d="M83.7600 62.0000
L84.0000 61.7600
" />
<path d="M86.0000 56.0000
L101.0000 56.0000
" />
<path d="M102.0000 57.0000
L102.0000 92.0000
" />
<path d="M100.0000 51.0000
L101.0000 50.0000
" />
<path d="M81.2200 56.7800
L87.0000 51.0000
" />
<path d="M27.0000 64.5000
L27.0000 100.0000
" />
<path d="M101.0000 45.0000
L93.0000 37.0000
" />
<path d="M101.0000 50.0000
L101.0000 45.0000
" />
<path d="M93.0000 37.0000
L67.0000 37.0000
" />
<path d="M81.2200 62.0000
L81.2200 56.7800
" />
<path d="M50.0000 54.0000
L37.5000 54.0000
" />
<path d="M87.0000 51.0000
L100.0000 51.0000
" />
<path d="M33.0000 106.0000
L33.0000 108.0000
" />
<path d="M37.5000 54.0000
L27.0000 64.5000
" />
<path d="M67.0000 37.0000
L50.0000 54.0000
" />
<path d="M27.0000 100.0000
L33.0000 106.0000
" />
<path d="M36.7990 110.7990
L35.5000 109.5000
" />
<path d="M50.0000 56.0000
L67.5000 38.5000
" />
<path d="M48.2010 110.7990
L36.7990 110.7990
" />
<path d="M35.5000 109.5000
L35.5000 101.5000
" />
<path d="M67.5000 38.5000
L82.5000 38.5000
" />
<path d="M50.0000 109.0000
L48.2010 110.7990
" />
<path d="M35.5000 101.5000
L28.5000 94.5000
" />
<path d="M86.3000 42.3000
L86.3000 46.7600
" />
<path d="M37.5000 56.0000
L50.0000 56.0000
" />
<path d="M28.5000 65.0000
L37.5000 56.0000
" />
<path d="M28.5000 94.5000
L28.5000 65.0000
" />
<path d="M82.5000 38.5000
L86.3000 42.3000
" />
<path d="M76.1400 64.1400
L78.5000 66.5000
" />
<path d="M78.5000 66.5000
L85.0421 66.5000
" />
<path d="M85.0421 66.5000
L86.3400 67.7979
" />
<path d="M86.3400 67.7979
L86.3400 69.0000
" />
<path d="M76.1400 62.0000
L76.1400 64.1400
" />
<path d="M73.6000 64.1000
L78.5000 69.0000
" />
<path d="M73.6000 62.0000
L73.6000 64.1000
" />
<path d="M78.5000 69.0000
L83.8000 69.0000
" />
<path d="M78.6800 64.1800
L79.5000 65.0000
" />
<path d="M79.5000 65.0000
L86.5000 65.0000
" />
<path d="M78.6800 62.0000
L78.6800 64.1800
" />
<path d="M86.5000 65.0000
L88.8800 67.3800
" />
<path d="M88.8800 67.3800
L88.8800 69.0000
" />
<path style="fill:none; 
stroke:#FFFFFF; stroke-width:0.1000; stroke-opacity:1; 
stroke-linecap:round; stroke-linejoin:round;fill:none"
d="M 23.0000,20.5000
105.0000,20.5000
105.0000,114.5000
23.0000,114.5000
Z" /> 
</g>
<g style="fill:#000000; fill-opacity:1.0000; stroke:none;">
<circle cx="31.9000" cy="67.0000" r="0.1750" /> 
</g>
<g style="fill:#000000; fill-opacity:1.0000; stroke:none;">
<circle cx="34.4400" cy="67.0000" r="0.1750" /> 
</g>
<g style="fill:#000000; fill-opacity:1.0000; stroke:none;">
<circle cx="36.9800" cy="67.0000" r="0.1750" /> 
</g>
<g style="fill:#000000; fill-opacity:1.0000; stroke:none;">
<circle cx="39.5200" cy="67.0000" r="0.1750" /> 
</g>
<g style="fill:#000000; fill-opacity:1.0000; stroke:none;">
<circle cx="42.0600" cy="67.0000" r="0.1750" /> 
</g>
<g style="fill:#000000; fill-opacity:1.0000; stroke:none;">
<circle cx="44.6000" cy="67.0000" r="0.1750" /> 
</g>
<g style="fill:#000000; fill-opacity:1.0000; stroke:none;">
<circle cx="47.1400" cy="67.0000" r="0.1750" /> 
</g>
<g style="fill:#000000; fill-opacity:1.0000; stroke:none;">
<circle cx="49.6800" cy="67.0000" r="0.1750" /> 
</g>
<g style="fill:#000000; fill-opacity:1.0000; stroke:none;">
<circle cx="52.2200" cy="67.0000" r="0.1750" /> 
</g>
<g style="fill:#000000; fill-opacity:1.0000; stroke:none;">
<circle cx="54.7600" cy="67.0000" r="0.1750" /> 
</g>
<g style="fill:#000000; fill-opacity:1.0000; stroke:none;">
<circle cx="57.3000" cy="67.0000" r="0.1750" /> 
</g>
<g style="fill:#000000; fill-opacity:1.0000; stroke:none;">
<circle cx="59.8400" cy="67.0000" r="0.1750" /> 
</g>
<g style="fill:#000000; fill-opacity:1.0000; stroke:none;">
<circle cx="62.3800" cy="67.0000" r="0.1750" /> 
</g>
<g style="fill:#000000; fill-opacity:1.0000; stroke:none;">
<circle cx="64.9200" cy="67.0000" r="0.1750" /> 
</g>
<g style="fill:#000000; fill-opacity:1.0000; stroke:none;">
<circle cx="67.4600" cy="67.0000" r="0.1750" /> 
</g>
<g style="fill:#000000; fill-opacity:1.0000; stroke:none;">
<circle cx="70.0000" cy="67.0000" r="0.1750" /> 
</g>
<g style="fill:#000000; fill-opacity:1.0000; stroke:none;">
<circle cx="83.8000" cy="69.0000" r="0.1750" /> 
</g>
<g style="fill:#000000; fill-opacity:1.0000; stroke:none;">
<circle cx="86.3400" cy="69.0000" r="0.1750" /> 
</g>
<g style="fill:#000000; fill-opacity:1.0000; stroke:none;">
<circle cx="88.8800" cy="69.0000" r="0.1750" /> 
</g>
<g style="fill:#000000; fill-opacity:1.0000; stroke:none;">
<circle cx="91.4200" cy="69.0000" r="0.1750" /> 
</g>
<g style="fill:#000000; fill-opacity:1.0000; stroke:none;">
<circle cx="93.9600" cy="69.0000" r="0.1750" /> 
</g>
<g style="fill:#000000; fill-opacity:1.0000; stroke:none;">
<circle cx="96.5000" cy="69.0000" r="0.1750" /> 
</g>
<g style="fill:#000000; fill-opacity:1.0000; stroke:none;">
<circle cx="35.9950" cy="33.0000" r="0.1750" /> 
</g>
<g style="fill:#000000; fill-opacity:1.0000; stroke:none;">
<circle cx="91.6050" cy="33.0000" r="0.1750" /> 
</g>
<g style="fill:#000000; fill-opacity:1.0000; stroke:none;">
<circle cx="27.5500" cy="33.0000" r="0.1750" /> 
</g>
<g style="fill:#000000; fill-opacity:1.0000; stroke:none;">
<circle cx="100.4500" cy="33.0000" r="0.1750" /> 
</g>
<g style="fill:#000000; fill-opacity:1.0000; stroke:none;">
<circle cx="28.0000" cy="108.0000" r="0.1750" /> 
</g>
<g style="fill:#000000; fill-opacity:1.0000; stroke:none;">
<circle cx="33.0000" cy="108.0000" r="0.1750" /> 
</g>
<g style="fill:#000000; fill-opacity:1.0000; stroke:none;">
<circle cx="38.0000" cy="108.0000" r="0.1750" /> 
</g>
<g style="fill:#000000; fill-opacity:1.0000; stroke:none;">
<circle cx="90.0000" cy="103.0000" r="0.1750" /> 
</g>
<g style="fill:#000000; fill-opacity:1.0000; stroke:none;">
<circle cx="87.4600" cy="103.0000" r="0.1750" /> 
</g>
<g style="fill:#000000; fill-opacity:1.0000; stroke:none;">
<circle cx="84.9200" cy="103.0000" r="0.1750" /> 
</g>
<g style="fill:#000000; fill-opacity:1.0000; stroke:none;">
<circle cx="82.3800" cy="103.0000" r="0.1750" /> 
</g>
<g style="fill:#000000; fill-opacity:1.0000; stroke:none;">
<circle cx="79.8400" cy="103.0000" r="0.1750" /> 
</g>
<g style="fill:#000000; fill-opacity:1.0000; stroke:none;">
<circle cx="77.3000" cy="103.0000" r="0.1750" /> 
</g>
<g style="fill:#000000; fill-opacity:1.0000; stroke:none;">
<circle cx="74.7600" cy="103.0000" r="0.1750" /> 
</g>
<g style="fill:#000000; fill-opacity:1.0000; stroke:none;">
<circle cx="72.2200" cy="103.0000" r="0.1750" /> 
</g>
<g style="fill:#000000; fill-opacity:1.0000; stroke:none;">
<circle cx="72.2200" cy="110.6200" r="0.1750" /> 
</g>
<g style="fill:#000000; fill-opacity:1.0000; stroke:none;">
<circle cx="74.7600" cy="110.6200" r="0.1750" /> 
</g>
<g style="fill:#000000; fill-opacity:1.0000; stroke:none;">
<circle cx="77.3000" cy="110.6200" r="0.1750" /> 
</g>
<g style="fill:#000000; fill-opacity:1.0000; stroke:none;">
<circle cx="79.8400" cy="110.6200" r="0.1750" /> 
</g>
<g style="fill:#000000; fill-opacity:1.0000; stroke:none;">
<circle cx="82.3800" cy="110.6200" r="0.1750" /> 
</g>
<g style="fill:#000000; fill-opacity:1.0000; stroke:none;">
<circle cx="84.9200" cy="110.6200" r="0.1750" /> 
</g>
<g style="fill:#000000; fill-opacity:1.0000; stroke:none;">
<circle cx="87.4600" cy="110.6200" r="0.1750" /> 
</g>
<g style="fill:#000000; fill-opacity:1.0000; stroke:none;">
<circle cx="90.0000" cy="110.6200" r="0.1750" /> 
</g>
<g style="fill:#000000; fill-opacity:1.0000; stroke:none;">
<circle cx="42.0000" cy="59.5000" r="0.1750" /> 
</g>
<g style="fill:#000000; fill-opacity:1.0000; stroke:none;">
<circle cx="39.5000" cy="62.0000" r="0.1750" /> 
</g>
<g style="fill:#000000; fill-opacity:1.0000; stroke:none;">
<circle cx="37.0000" cy="59.5000" r="0.1750" /> 
</g>
<g style="fill:#000000; fill-opacity:1.0000; stroke:none;">
<circle cx="81.2200" cy="62.0000" r="0.1750" /> 
</g>
<g style="fill:#000000; fill-opacity:1.0000; stroke:none;">
<circle cx="83.7600" cy="62.0000" r="0.1750" /> 
</g>
<g style="fill:#000000; fill-opacity:1.0000; stroke:none;">
<circle cx="86.3000" cy="62.0000" r="0.1750" /> 
</g>
<g style="fill:#000000; fill-opacity:1.0000; stroke:none;">
<circle cx="88.8400" cy="62.0000" r="0.1750" /> 
</g>
<g style="fill:#000000; fill-opacity:1.0000; stroke:none;">
<circle cx="87.5700" cy="59.4600" r="0.1750" /> 
</g>
<g style="fill:#000000; fill-opacity:1.0000; stroke:none;">
<circle cx="90.1100" cy="59.4600" r="0.1750" /> 
</g>
<g style="fill:#000000; fill-opacity:1.0000; stroke:none;">
<circle cx="71.0600" cy="56.9200" r="0.1750" /> 
</g>
<g style="fill:#000000; fill-opacity:1.0000; stroke:none;">
<circle cx="71.0600" cy="59.4600" r="0.1750" /> 
</g>
<g style="fill:#000000; fill-opacity:1.0000; stroke:none;">
<circle cx="96.4600" cy="46.7600" r="0.1750" /> 
</g>
<g style="fill:#000000; fill-opacity:1.0000; stroke:none;">
<circle cx="99.0000" cy="46.7600" r="0.1750" /> 
</g>
<g style="fill:#000000; fill-opacity:1.0000; stroke:none;">
<circle cx="88.8400" cy="46.7600" r="0.1750" /> 
</g>
<g style="fill:#000000; fill-opacity:1.0000; stroke:none;">
<circle cx="86.3000" cy="46.7600" r="0.1750" /> 
</g>
<g style="fill:#000000; fill-opacity:1.0000; stroke:none;">
<circle cx="83.7600" cy="46.7600" r="0.1750" /> 
</g>
<g style="fill:#000000; fill-opacity:1.0000; stroke:none;">
<circle cx="81.2200" cy="46.7600" r="0.1750" /> 
</g>
<g style="fill:#000000; fill-opacity:1.0000; stroke:none;">
<circle cx="78.6800" cy="46.7600" r="0.1750" /> 
</g>
<g style="fill:#000000; fill-opacity:1.0000; stroke:none;">
<circle cx="76.1400" cy="46.7600" r="0.1750" /> 
</g>
<g style="fill:#000000; fill-opacity:1.0000; stroke:none;">
<circle cx="73.6000" cy="46.7600" r="0.1750" /> 
</g>
<g style="fill:#000000; fill-opacity:1.0000; stroke:none;">
<circle cx="71.0600" cy="46.7600" r="0.1750" /> 
</g>
<g style="fill:#000000; fill-opacity:1.0000; stroke:none;">
<circle cx="71.0600" cy="62.0000" r="0.1750" /> 
</g>
<g style="fill:#000000; fill-opacity:1.0000; stroke:none;">
<circle cx="73.6000" cy="62.0000" r="0.1750" /> 
</g>
<g style="fill:#000000; fill-opacity:1.0000; stroke:none;">
<circle cx="76.1400" cy="62.0000" r="0.1750" /> 
</g>
<g style="fill:#000000; fill-opacity:1.0000; stroke:none;">
<circle cx="78.6800" cy="62.0000" r="0.1750" /> 
</g>
<g style="fill:#000000; fill-opacity:1.0000; stroke:none;">
<circle cx="91.3800" cy="46.7600" r="0.1750" /> 
</g>
<g style="fill:#000000; fill-opacity:1.0000; stroke:none;">
<circle cx="96.4600" cy="62.0000" r="0.1750" /> 
</g>
<g style="fill:#000000; fill-opacity:1.0000; stroke:none;">
<circle cx="71.0600" cy="54.3800" r="0.1750" /> 
</g>
<g style="fill:#000000; fill-opacity:1.0000; stroke:none;">
<circle cx="99.0000" cy="62.0000" r="0.1750" /> 
</g>
<g style="fill:#000000; fill-opacity:1.0000; stroke:none;">
<circle cx="93.9200" cy="46.7600" r="0.1750" /> 
</g>
<g style="fill:#000000; fill-opacity:1.0000; stroke:none;">
<circle cx="93.9200" cy="62.0000" r="0.1750" /> 
</g>
<g style="fill:#000000; fill-opacity:1.0000; stroke:none;">
<circle cx="91.3800" cy="62.0000" r="0.1750" /> 
</g>
<g style="fill:#000000; fill-opacity:1.0000; stroke:none;">
<circle cx="101.0000" cy="110.0000" r="0.1750" /> 
</g>
<g style="fill:#000000; fill-opacity:1.0000; stroke:none;">
<circle cx="101.0000" cy="103.6500" r="0.1750" /> 
</g>
<g style="fill:#000000; fill-opacity:1.0000; stroke:none;">
<circle cx="31.0000" cy="55.0000" r="0.1750" /> 
</g>
<g style="fill:#000000; fill-opacity:1.0000; stroke:none;">
<circle cx="31.0000" cy="47.0000" r="0.1750" /> 
</g>
<g style="fill:#000000; fill-opacity:1.0000; stroke:none;">
<circle cx="49.0000" cy="47.0000" r="0.1750" /> 
</g>
<g style="fill:#000000; fill-opacity:1.0000; stroke:none;">
<circle cx="49.0000" cy="51.0000" r="0.1750" /> 
</g>
<g style="fill:#000000; fill-opacity:1.0000; stroke:none;">
<circle cx="26.0000" cy="46.9000" r="0.1750" /> 
</g>
<g style="fill:#000000; fill-opacity:1.0000; stroke:none;">
<circle cx="26.0000" cy="55.1000" r="0.1750" /> 
</g>
<g style="fill:#000000; fill-opacity:1.0000; stroke:none;">
<circle cx="26.0000" cy="49.0000" r="0.1750" /> 
</g>
<g style="fill:#000000; fill-opacity:1.0000; stroke:none;">
<circle cx="26.0000" cy="51.0000" r="0.1750" /> 
</g>
<g style="fill:#000000; fill-opacity:1.0000; stroke:none;">
<circle cx="26.0000" cy="53.0000" r="0.1750" /> 
</g>
<g style="fill:#000000; fill-opacity:1.0000; stroke:none;">
<circle cx="50.0000" cy="104.5000" r="0.1750" /> 
</g>
<g style="fill:#000000; fill-opacity:1.0000; stroke:none;">
<circle cx="56.5000" cy="104.5000" r="0.1750" /> 
</g>
<g style="fill:#000000; fill-opacity:1.0000; stroke:none;">
<circle cx="50.0000" cy="109.0000" r="0.1750" /> 
</g>
<g style="fill:#000000; fill-opacity:1.0000; stroke:none;">
<circle cx="56.5000" cy="109.0000" r="0.1750" /> 
</g> 
</svg>
