<?xml version="1.0" standalone="no"?>
 <!DOCTYPE svg PUBLIC "-//W3C//DTD SVG 1.1//EN" 
 "http://www.w3.org/Graphics/SVG/1.1/DTD/svg11.dtd"> 
<svg
  xmlns:svg="http://www.w3.org/2000/svg"
  xmlns="http://www.w3.org/2000/svg"
  xmlns:xlink="http://www.w3.org/1999/xlink"
  version="1.1"
  width="210.0072mm" height="297.0022mm" viewBox="0.0000 0.0000 210.0072 297.0022">
<title>SVG Image created as agitator_pcb-B_Cu.svg date 2025/11/21 21:18:23 </title>
  <desc>Image generated by PCBNEW </desc>
<g style="fill:#000000; fill-opacity:1.0000;stroke:#000000; stroke-opacity:1.0000;
stroke-linecap:round; stroke-linejoin:round;"
 transform="translate(0 0) scale(1 1)">
</g>
<g style="fill:#000000; fill-opacity:1.0000; 
stroke:#000000; stroke-width:0.0212; stroke-opacity:1; 
stroke-linecap:round; stroke-linejoin:round;">
<rect x="6.217857" y="8.551750" width="94.454763" height="76.723250" rx="0.000000" />
<path style="fill:#FFFFFF; fill-opacity:1.0000; stroke:none;fill-rule:evenodd;"
d="M 91.8500,44.1500
91.8500,45.8500
90.1500,45.8500
90.1500,44.1500
Z" /> 
</g>
<g style="fill:#FFFFFF; fill-opacity:1.0000; stroke:none;">
<circle cx="91.0000" cy="42.4600" r="0.8500" /> 
<path style="fill:#FFFFFF; fill-opacity:1.0000; stroke:none;fill-rule:evenodd;"
d="M 75.6900,53.1500
77.3900,53.1500
77.3900,54.8500
75.6900,54.8500
Z" /> 
</g>
<g style="fill:#FFFFFF; fill-opacity:1.0000; stroke:none;">
<circle cx="74.0000" cy="54.0000" r="0.8500" /> 
</g>
<g style="fill:#FFFFFF; fill-opacity:1.0000; stroke:none;">
<circle cx="71.4600" cy="54.0000" r="0.8500" /> 
</g>
<g style="fill:#FFFFFF; fill-opacity:1.0000; stroke:none;">
<circle cx="86.0000" cy="46.5000" r="1.5000" /> 
</g>
<g style="fill:#FFFFFF; fill-opacity:1.0000; stroke:none;">
<circle cx="86.0000" cy="42.5000" r="1.5000" /> 
</g>
<g style="fill:#FFFFFF; fill-opacity:1.0000; stroke:none;">
<circle cx="68.0000" cy="42.5000" r="1.5000" /> 
</g>
<g style="fill:#FFFFFF; fill-opacity:1.0000; stroke:none;">
<circle cx="68.0000" cy="50.5000" r="1.5000" /> 
<path style="fill:#FFFFFF; fill-opacity:1.0000; stroke:none;fill-rule:evenodd;"
d="M 55.7500,39.0900
57.3500,39.0900
57.3500,40.6900
55.7500,40.6900
Z" /> 
</g>
<g style="fill:#FFFFFF; fill-opacity:1.0000; stroke:none;">
<circle cx="54.0100" cy="39.8900" r="0.8000" /> 
<circle cx="51.4700" cy="39.8900" r="0.8000" /> 
<circle cx="48.9300" cy="39.8900" r="0.8000" /> 
<circle cx="46.3900" cy="39.8900" r="0.8000" /> 
<circle cx="43.8500" cy="39.8900" r="0.8000" /> 
<circle cx="41.3100" cy="39.8900" r="0.8000" /> 
<circle cx="38.7700" cy="39.8900" r="0.8000" /> 
<circle cx="36.2300" cy="39.8900" r="0.8000" /> 
<circle cx="33.6900" cy="39.8900" r="0.8000" /> 
<circle cx="31.1500" cy="39.8900" r="0.8000" /> 
<circle cx="28.6100" cy="39.8900" r="0.8000" /> 
<circle cx="26.0700" cy="39.8900" r="0.8000" /> 
<circle cx="23.5300" cy="39.8900" r="0.8000" /> 
<circle cx="20.9900" cy="39.8900" r="0.8000" /> 
<circle cx="20.9900" cy="55.1300" r="0.8000" /> 
<circle cx="23.5300" cy="55.1300" r="0.8000" /> 
<circle cx="26.0700" cy="55.1300" r="0.8000" /> 
<circle cx="28.6100" cy="55.1300" r="0.8000" /> 
<circle cx="31.1500" cy="55.1300" r="0.8000" /> 
<circle cx="33.6900" cy="55.1300" r="0.8000" /> 
<circle cx="36.2300" cy="55.1300" r="0.8000" /> 
<circle cx="38.7700" cy="55.1300" r="0.8000" /> 
<circle cx="41.3100" cy="55.1300" r="0.8000" /> 
<circle cx="43.8500" cy="55.1300" r="0.8000" /> 
<circle cx="46.3900" cy="55.1300" r="0.8000" /> 
<circle cx="48.9300" cy="55.1300" r="0.8000" /> 
<circle cx="51.4700" cy="55.1300" r="0.8000" /> 
<circle cx="54.0100" cy="55.1300" r="0.8000" /> 
<circle cx="56.5500" cy="55.1300" r="0.8000" /> 
<circle cx="20.0000" cy="63.5000" r="1.1700" /> 
</g>
<g style="fill:#FFFFFF; fill-opacity:1.0000; stroke:none;">
<circle cx="25.0000" cy="63.5000" r="1.1700" /> 
</g>
<g style="fill:#FFFFFF; fill-opacity:1.0000; stroke:none;">
<circle cx="30.0000" cy="63.5000" r="1.1700" /> 
</g>
<g style="fill:#FFFFFF; fill-opacity:1.0000; stroke:none;">
<circle cx="50.0000" cy="63.5000" r="1.1700" /> 
</g>
<g style="fill:#FFFFFF; fill-opacity:1.0000; stroke:none;">
<circle cx="55.0000" cy="63.5000" r="1.1700" /> 
</g>
<g style="fill:#FFFFFF; fill-opacity:1.0000; stroke:none;">
<circle cx="60.0000" cy="63.5000" r="1.1700" /> 
<path style="fill:#FFFFFF; fill-opacity:1.0000; stroke:none;fill-rule:evenodd;"
d="M 16.0000,25.0500
16.0190,24.9543
16.0732,24.8732
16.1543,24.8190
16.2500,24.8000
18.7500,24.8000
18.8457,24.8190
18.9268,24.8732
18.9810,24.9543
19.0000,25.0500
19.0000,27.5500
18.9810,27.6457
18.9268,27.7268
18.8457,27.7810
18.7500,27.8000
16.2500,27.8000
16.1543,27.7810
16.0732,27.7268
16.0190,27.6457
16.0000,27.5500
Z" /> 
</g>
<g style="fill:#FFFFFF; fill-opacity:1.0000; stroke:none;">
<circle cx="90.4000" cy="26.3000" r="1.5000" /> 
</g>
<g style="fill:none; 
stroke:#FFFFFF; stroke-width:0.6000; stroke-opacity:1; 
stroke-linecap:round; stroke-linejoin:round;">
<path d="M28.5000 55.2400
L28.6100 55.1300
" />
<path d="M37.5000 57.5000
L28.5000 57.5000
" />
<path d="M25.0000 61.0000
L25.0000 63.5000
" />
<path d="M38.7700 56.2300
L37.5000 57.5000
" />
<path d="M28.5000 57.5000
L25.0000 61.0000
" />
<path d="M38.7700 55.1300
L38.7700 56.2300
" />
<path d="M32.0000 61.5000
L51.0000 61.5000
" />
<path d="M53.5000 65.5000
L58.0000 65.5000
" />
<path d="M58.0000 65.5000
L60.0000 63.5000
" />
<path d="M52.5000 64.5000
L53.5000 65.5000
" />
<path d="M48.9300 41.4300
L48.9300 39.8900
" />
<path d="M74.4900 63.5000
L76.5400 61.4500
" />
<path d="M50.0000 42.5000
L48.9300 41.4300
" />
<path d="M52.5000 63.0000
L52.5000 64.5000
" />
<path d="M30.0000 63.5000
L32.0000 61.5000
" />
<path d="M51.0000 61.5000
L52.5000 63.0000
" />
<path d="M60.0000 63.5000
L74.4900 63.5000
" />
<path d="M68.0000 42.5000
L50.0000 42.5000
" />
<path d="M76.5400 61.4500
L76.5400 54.0000
" />
<path d="M41.3100 55.1300
L41.3100 56.3100
" />
<path d="M49.0000 57.5000
L55.0000 63.5000
" />
<path d="M41.3100 56.3100
L42.5000 57.5000
" />
<path d="M42.5000 57.5000
L49.0000 57.5000
" />
<path d="M74.0000 55.0000
L74.0000 54.0000
" />
<path d="M68.0000 54.5000
L69.5000 56.0000
" />
<path d="M18.8300 62.3300
L18.8300 54.1700
" />
<path d="M69.5000 56.0000
L73.0000 56.0000
" />
<path d="M48.9300 52.0700
L48.9300 55.1300
" />
<path d="M73.0000 56.0000
L74.0000 55.0000
" />
<path d="M68.0000 50.5000
L68.0000 54.5000
" />
<path d="M18.8300 54.1700
L20.0000 53.0000
" />
<path d="M48.0000 65.5000
L50.0000 63.5000
" />
<path d="M50.5000 50.5000
L48.9300 52.0700
" />
<path d="M22.0000 65.5000
L48.0000 65.5000
" />
<path d="M20.0000 53.0000
L48.9300 53.0000
" />
<path d="M20.0000 63.5000
L18.8300 62.3300
" />
<path d="M68.0000 50.5000
L50.5000 50.5000
" />
<path d="M20.0000 63.5000
L22.0000 65.5000
" />
<path d="M71.4600 49.4600
L71.4600 54.0000
" />
<path d="M28.6100 43.1100
L32.0000 46.5000
" />
<path d="M68.5000 46.5000
L71.4600 49.4600
" />
<path d="M32.0000 46.5000
L68.5000 46.5000
" />
<path d="M28.6100 39.8900
L28.6100 43.1100
" />
<path d="M91.0000 42.4600
L91.0000 39.0000
" />
<path d="M78.3000 26.3000
L17.5000 26.3000
" />
<path d="M91.0000 39.0000
L78.3000 26.3000
" />
<path d="M88.5000 45.0000
L86.0000 42.5000
" />
<path d="M91.0000 45.0000
L88.5000 45.0000
" />
<path style="fill:#FFFFFF; fill-opacity:1.0000; stroke:none;fill-rule:evenodd;"
d="M 93.8085,14.5207
93.9019,14.5785
93.9682,14.6662
93.9982,14.7719
93.9995,14.7995
93.9995,65.7005
93.9793,65.8085
93.9215,65.9019
93.8338,65.9682
93.7281,65.9982
93.7005,65.9995
49.4958,65.9995
49.3878,65.9793
49.2944,65.9215
49.2282,65.8338
49.1981,65.7281
49.2083,65.6187
49.2572,65.5203
49.2844,65.4891
49.2844,65.4891
49.4431,65.3304
49.5337,65.2683
49.6407,65.2432
49.6935,65.2454
49.8638,65.2679
49.8840,65.2705
49.8840,65.2705
50.1160,65.2705
50.1595,65.2648
50.3461,65.2402
50.5703,65.1801
50.7848,65.0913
50.9857,64.9753
51.1699,64.8340
51.3340,64.6699
51.4753,64.4857
51.5913,64.2848
51.6801,64.0703
51.7402,63.8461
51.7705,63.6160
51.7705,63.3840
51.7402,63.1539
51.6801,62.9297
51.6778,62.9240
51.6399,62.8325
51.5913,62.7152
51.4753,62.5143
51.4753,62.5142
51.4753,62.5142
51.3340,62.3301
51.3340,62.3301
51.3340,62.3301
51.1699,62.1660
51.1699,62.1660
50.9858,62.0247
50.9857,62.0247
50.8863,61.9673
50.7848,61.9087
50.5703,61.8199
50.4412,61.7853
50.3461,61.7598
50.2615,61.7487
50.1160,61.7295
50.1160,61.7295
49.8840,61.7295
49.8840,61.7295
49.6539,61.7598
49.4297,61.8199
49.2152,61.9087
49.0143,62.0247
49.0142,62.0247
48.8301,62.1660
48.8301,62.1660
48.6660,62.3301
48.6660,62.3301
48.5247,62.5142
48.5247,62.5143
48.4087,62.7152
48.3199,62.9297
48.2598,63.1539
48.2295,63.3840
48.2295,63.6160
48.2424,63.7144
48.2546,63.8065
48.2546,63.8065
48.2487,63.9162
48.2035,64.0164
48.1696,64.0569
47.7146,64.5119
47.6239,64.5740
47.5170,64.5992
47.5031,64.5995
31.7997,64.5995
31.6916,64.5793
31.5982,64.5215
31.5320,64.4338
31.5019,64.3281
31.5121,64.2187
31.5234,64.1861
31.5848,64.0380
31.6414,63.8265
31.6700,63.6095
31.6700,63.3905
31.6414,63.1735
31.5848,62.9620
31.5010,62.7598
31.3915,62.5702
31.3753,62.5490
30.6218,63.3025
30.5760,63.1921
30.5049,63.0856
30.4144,62.9951
30.3079,62.9240
30.1975,62.8782
30.9510,62.1247
30.9298,62.1085
30.7402,61.9990
30.7402,61.9990
30.5380,61.9152
30.3265,61.8586
30.3265,61.8586
30.1095,61.8300
29.8905,61.8300
29.6735,61.8586
29.4620,61.9152
29.2598,61.9990
29.0702,62.1085
29.0490,62.1247
29.8025,62.8782
29.6921,62.9240
29.5856,62.9951
29.4951,63.0856
29.4240,63.1921
29.3782,63.3025
28.6247,62.5490
28.6085,62.5702
28.4990,62.7598
28.4152,62.9620
28.3586,63.1735
28.3300,63.3905
28.3300,63.6095
28.3586,63.8265
28.4152,64.0380
28.4766,64.1861
28.4993,64.2936
28.4816,64.4020
28.4259,64.4968
28.3398,64.5650
28.2348,64.5975
28.2003,64.5995
26.9084,64.5995
26.8004,64.5793
26.7070,64.5215
26.6408,64.4338
26.6107,64.3281
26.6208,64.2187
26.6322,64.1861
26.6801,64.0703
26.6801,64.0703
26.6801,64.0703
26.7402,63.8461
26.7705,63.6160
26.7705,63.3840
26.7402,63.1539
26.6801,62.9297
26.6778,62.9240
26.6399,62.8325
26.5913,62.7152
26.4753,62.5143
26.4753,62.5142
26.4753,62.5142
26.3340,62.3301
26.3340,62.3301
26.3340,62.3301
26.1699,62.1660
26.1699,62.1660
26.0175,62.0491
25.9815,62.0090
25.9453,61.9693
25.9449,61.9682
25.9441,61.9673
25.9250,61.9170
25.9056,61.8668
25.9054,61.8652
25.9052,61.8645
25.9005,61.8119
25.9005,61.4968
25.9207,61.3888
25.9785,61.2954
25.9881,61.2854
28.7854,58.4881
28.8761,58.4260
28.9830,58.4008
28.9968,58.4005
37.5887,58.4005
37.7627,58.3659
37.8446,58.3320
37.9265,58.2980
38.0150,58.2389
38.0740,58.1995
39.4695,56.8040
39.5376,56.7020
39.5680,56.6565
39.6202,56.5305
39.6359,56.4927
39.6705,56.3187
39.6705,56.3187
39.6719,56.3047
39.6775,56.2855
39.6784,56.2656
39.6927,56.2332
39.7026,56.1992
39.7157,56.1811
39.7228,56.1650
39.7580,56.1226
39.8286,56.0520
39.9192,55.9899
40.0262,55.9648
40.1350,55.9800
40.2310,56.0334
40.2514,56.0520
40.3219,56.1225
40.3840,56.2132
40.4092,56.3201
40.4095,56.3340
40.4095,56.3987
40.4176,56.4392
40.4441,56.5727
40.4696,56.6341
40.5120,56.7365
40.5571,56.8040
40.6105,56.8840
41.9260,58.1995
41.9850,58.2389
42.0735,58.2980
42.1554,58.3320
42.1699,58.3380
42.1699,58.3380
42.2072,58.3534
42.2373,58.3659
42.4113,58.4005
42.4113,58.4005
48.5031,58.4005
48.6112,58.4207
48.7046,58.4785
48.7146,58.4881
53.1696,62.9431
53.2317,63.0337
53.2568,63.1407
53.2546,63.1935
53.2295,63.3840
53.2295,63.6160
53.2497,63.7694
53.2546,63.8065
53.2598,63.8461
53.3199,64.0703
53.4087,64.2848
53.5247,64.4857
53.5247,64.4858
53.6660,64.6699
53.6660,64.6699
53.8301,64.8340
53.8301,64.8340
53.8301,64.8340
54.0142,64.9753
54.0142,64.9753
54.0143,64.9753
54.2152,65.0913
54.3325,65.1399
54.4297,65.1801
54.4297,65.1801
54.4297,65.1801
54.6539,65.2402
54.8360,65.2642
54.8840,65.2705
54.8840,65.2705
55.1160,65.2705
55.1595,65.2648
55.3461,65.2402
55.5703,65.1801
55.7848,65.0913
55.9857,64.9753
56.1699,64.8340
56.3340,64.6699
56.3919,64.5944
56.4048,64.5776
56.4048,64.5776
56.4753,64.4858
56.4753,64.4858
56.4753,64.4857
56.5913,64.2848
56.6801,64.0703
56.7402,63.8461
56.7705,63.6160
56.7705,63.3905
58.3300,63.3905
58.3300,63.6095
58.3586,63.8265
58.4152,64.0380
58.4990,64.2402
58.4990,64.2402
58.6085,64.4298
58.6085,64.4298
58.6247,64.4510
59.3782,63.6975
59.4240,63.8079
59.4951,63.9144
59.5856,64.0049
59.6921,64.0760
59.8025,64.1218
59.0490,64.8753
59.0702,64.8915
59.2598,65.0010
59.4620,65.0848
59.6735,65.1414
59.6735,65.1414
59.8905,65.1700
60.1095,65.1700
60.3265,65.1414
60.5380,65.0848
60.7402,65.0010
60.9298,64.8915
60.9510,64.8753
60.1975,64.1218
60.3079,64.0760
60.4144,64.0049
60.5049,63.9144
60.5760,63.8079
60.6218,63.6975
61.3753,64.4510
61.3915,64.4298
61.5010,64.2402
61.5848,64.0380
61.6414,63.8265
61.6700,63.6095
61.6700,63.3905
61.6414,63.1735
61.5848,62.9620
61.5010,62.7598
61.3915,62.5702
61.3753,62.5490
60.6218,63.3025
60.5760,63.1921
60.5049,63.0856
60.4144,62.9951
60.3079,62.9240
60.1975,62.8782
60.9510,62.1247
60.9298,62.1085
60.7402,61.9990
60.7402,61.9990
60.5380,61.9152
60.3265,61.8586
60.3265,61.8586
60.1095,61.8300
59.8905,61.8300
59.6735,61.8586
59.4620,61.9152
59.2598,61.9990
59.0702,62.1085
59.0490,62.1247
59.8025,62.8782
59.6921,62.9240
59.5856,62.9951
59.4951,63.0856
59.4240,63.1921
59.3782,63.3025
58.6247,62.5490
58.6085,62.5702
58.4990,62.7598
58.4152,62.9620
58.3586,63.1735
58.3300,63.3905
56.7705,63.3905
56.7705,63.3840
56.7402,63.1539
56.6801,62.9297
56.6778,62.9240
56.6399,62.8325
56.5913,62.7152
56.4753,62.5143
56.4753,62.5142
56.4753,62.5142
56.4048,62.4224
56.4048,62.4224
56.3340,62.3301
56.1699,62.1660
56.1699,62.1660
55.9858,62.0247
55.9857,62.0247
55.8863,61.9673
55.7848,61.9087
55.5703,61.8199
55.4412,61.7853
55.3461,61.7598
55.2615,61.7487
55.1160,61.7295
55.1160,61.7295
54.8840,61.7295
54.8840,61.7295
54.7514,61.7469
54.6935,61.7546
54.5838,61.7487
54.4836,61.7035
54.4431,61.6696
49.5823,56.8088
49.5202,56.7181
49.4950,56.6111
49.5102,56.5023
49.5636,56.4063
49.6039,56.3663
49.6290,56.3457
49.6640,56.3278
49.8424,56.1982
49.9982,56.0424
49.9985,56.0421
50.0102,56.0324
50.0457,56.0129
50.0792,55.9899
50.0936,55.9866
50.1064,55.9795
50.1467,55.9741
50.1862,55.9648
50.2008,55.9668
50.2154,55.9649
50.2548,55.9743
50.2950,55.9800
50.3079,55.9871
50.3222,55.9906
50.3556,56.0137
50.3910,56.0334
50.4114,56.0520
50.5576,56.1982
50.7360,56.3278
50.9324,56.4279
51.1420,56.4960
51.3598,56.5305
51.3598,56.5305
51.5802,56.5305
51.5802,56.5305
51.7980,56.4960
52.0076,56.4279
52.2040,56.3278
52.3824,56.1982
52.5286,56.0520
52.6192,55.9899
52.7262,55.9648
52.8350,55.9800
52.9310,56.0334
52.9514,56.0520
53.0976,56.1982
53.2760,56.3278
53.4724,56.4279
53.6820,56.4960
53.8998,56.5305
53.8998,56.5305
54.1202,56.5305
54.1202,56.5305
54.3380,56.4960
54.5476,56.4279
54.7440,56.3278
54.9224,56.1982
55.0686,56.0520
55.1592,55.9899
55.2662,55.9648
55.3750,55.9800
55.4710,56.0334
55.4914,56.0520
55.6376,56.1982
55.8160,56.3278
56.0124,56.4279
56.2220,56.4960
56.4398,56.5305
56.4398,56.5305
56.6602,56.5305
56.6602,56.5305
56.8780,56.4960
57.0876,56.4279
57.2840,56.3278
57.4624,56.1982
57.6182,56.0424
57.7478,55.8640
57.8479,55.6676
57.9160,55.4580
57.9505,55.2402
57.9505,55.0198
57.9160,54.8020
57.8479,54.5924
57.7478,54.3960
57.6182,54.2176
57.4624,54.0618
57.2840,53.9322
57.2840,53.9322
57.2840,53.9322
57.2840,53.9322
57.0876,53.8321
57.0876,53.8321
57.0876,53.8321
57.0876,53.8321
56.8780,53.7640
56.8779,53.7640
56.8779,53.7640
56.6602,53.7295
56.6602,53.7295
56.4398,53.7295
56.4398,53.7295
56.2221,53.7640
56.0124,53.8321
56.0124,53.8321
55.8160,53.9322
55.8160,53.9322
55.8160,53.9322
55.6376,54.0618
55.6376,54.0618
55.6376,54.0618
55.4914,54.2080
55.4008,54.2701
55.2938,54.2952
55.1850,54.2800
55.0890,54.2266
55.0686,54.2080
54.9224,54.0618
54.9224,54.0618
54.7440,53.9322
54.7440,53.9322
54.7440,53.9322
54.7440,53.9322
54.5476,53.8321
54.5476,53.8321
54.5476,53.8321
54.5476,53.8321
54.3380,53.7640
54.3379,53.7640
54.3379,53.7640
54.1202,53.7295
54.1202,53.7295
53.8998,53.7295
53.8998,53.7295
53.6821,53.7640
53.4724,53.8321
53.4724,53.8321
53.2760,53.9322
53.2760,53.9322
53.2760,53.9322
53.0976,54.0618
53.0976,54.0618
53.0976,54.0618
52.9514,54.2080
52.8608,54.2701
52.7538,54.2952
52.6450,54.2800
52.5490,54.2266
52.5286,54.2080
52.3824,54.0618
52.3824,54.0618
52.2040,53.9322
52.2040,53.9322
52.2040,53.9322
52.2040,53.9322
52.0076,53.8321
52.0076,53.8321
52.0076,53.8321
52.0076,53.8321
51.7980,53.7640
51.7979,53.7640
51.7979,53.7640
51.5802,53.7295
51.5802,53.7295
51.3598,53.7295
51.3598,53.7295
51.1421,53.7640
50.9324,53.8321
50.9324,53.8321
50.7360,53.9322
50.7360,53.9322
50.7360,53.9322
50.5576,54.0618
50.5576,54.0618
50.5576,54.0618
50.4114,54.2080
50.3773,54.2313
50.3455,54.2578
50.3323,54.2622
50.3208,54.2701
50.2805,54.2795
50.2413,54.2927
50.2274,54.2920
50.2138,54.2952
50.1729,54.2895
50.1315,54.2876
50.1188,54.2820
50.1050,54.2800
50.0689,54.2599
50.0310,54.2432
50.0150,54.2300
50.0090,54.2266
49.9886,54.2080
49.9181,54.1375
49.8560,54.0468
49.8308,53.9399
49.8305,53.9260
49.8305,52.5668
49.8507,52.4588
49.9085,52.3654
49.9181,52.3554
50.7854,51.4881
50.8761,51.4260
50.9830,51.4008
50.9968,51.4005
65.9218,51.4005
66.0298,51.4207
66.1233,51.4785
66.1808,51.5500
66.2498,51.6695
66.4174,51.8879
66.6121,52.0826
66.8305,52.2502
66.8305,52.2502
66.8305,52.2502
66.9500,52.3192
67.0334,52.3907
67.0854,52.4875
67.0995,52.5782
67.0995,54.5887
67.1341,54.7627
67.1341,54.7627
67.1504,54.8020
67.1551,54.8135
67.2020,54.9265
67.2297,54.9680
67.3005,55.0740
68.8005,56.5740
68.9260,56.6995
69.0735,56.7980
69.2373,56.8659
69.4113,56.9005
69.4113,56.9005
69.4113,56.9005
73.0887,56.9005
73.2627,56.8659
73.3446,56.8320
73.4265,56.7980
73.5185,56.7365
73.5740,56.6995
74.6995,55.5740
74.7285,55.5305
74.7980,55.4265
74.8382,55.3295
74.8477,55.3067
74.9076,55.2146
74.9968,55.1505
75.1032,55.1228
75.2123,55.1355
75.3095,55.1867
75.3309,55.2057
75.4479,55.2934
75.5826,55.3436
75.6422,55.3500
75.6422,55.3500
76.2400,55.3500
76.2400,54.4041
76.3470,54.4659
76.4742,54.5000
76.6058,54.5000
76.7330,54.4659
76.8400,54.4041
76.8400,55.3500
77.4378,55.3500
77.4378,55.3500
77.4974,55.3436
77.4974,55.3436
77.6321,55.2934
77.7472,55.2072
77.7472,55.2072
77.8334,55.0921
77.8836,54.9574
77.8836,54.9574
77.8900,54.8978
77.8900,54.8978
77.8900,54.3000
76.9441,54.3000
77.0059,54.1930
77.0400,54.0658
77.0400,53.9342
77.0059,53.8070
76.9441,53.7000
77.8900,53.7000
77.8900,53.1022
77.8900,53.1022
77.8836,53.0426
77.8836,53.0426
77.8334,52.9079
77.7472,52.7928
77.7472,52.7928
77.6321,52.7066
77.4974,52.6564
77.4378,52.6500
76.8400,52.6500
76.8400,53.5959
76.7330,53.5341
76.6058,53.5000
76.4742,53.5000
76.3470,53.5341
76.2400,53.5959
76.2400,52.6500
75.6422,52.6500
75.5826,52.6564
75.5826,52.6564
75.4479,52.7066
75.3328,52.7928
75.3328,52.7928
75.3239,52.8047
75.2430,52.8790
75.1407,52.9192
75.0309,52.9196
74.9282,52.8804
74.9088,52.8674
74.7602,52.7594
74.5568,52.6558
74.3397,52.5852
74.1142,52.5495
74.1142,52.5495
73.8858,52.5495
73.8858,52.5495
73.6603,52.5852
73.4432,52.6558
73.2398,52.7594
73.0551,52.8936
72.9414,53.0073
72.9073,53.0306
72.8755,53.0570
72.8623,53.0615
72.8508,53.0694
72.8105,53.0788
72.7713,53.0920
72.7574,53.0913
72.7438,53.0945
72.7029,53.0888
72.6615,53.0869
72.6488,53.0813
72.6350,53.0793
72.5989,53.0592
72.5610,53.0425
72.5450,53.0292
72.5390,53.0259
72.5186,53.0073
72.4481,52.9368
72.3860,52.8461
72.3608,52.7391
72.3605,52.7253
72.3605,49.3713
72.3605,49.3713
72.3524,49.3305
72.3524,49.3305
72.3524,49.3305
72.3259,49.1973
72.2906,49.1121
72.2580,49.0335
72.1804,48.9174
72.1595,48.8860
69.0740,45.8005
69.0150,45.7611
68.9265,45.7020
68.8446,45.6680
68.8301,45.6620
68.8301,45.6620
68.7627,45.6341
68.5887,45.5995
68.5887,45.5995
68.5887,45.5995
32.4969,45.5995
32.3888,45.5793
32.2954,45.5215
32.2854,45.5119
29.5981,42.8246
29.5786,42.7961
29.5553,42.7706
29.5478,42.7511
29.5360,42.7339
29.5281,42.7003
29.5156,42.6681
29.5124,42.6337
29.5108,42.6270
29.5105,42.6131
29.5105,42.3689
66.0000,42.3689
66.0000,42.6311
66.0342,42.8910
66.1021,43.1443
66.2024,43.3865
66.3335,43.6135
66.3894,43.6864
67.3017,42.7740
67.3354,42.8553
67.4174,42.9781
67.5219,43.0826
67.6447,43.1646
67.7260,43.1983
66.8136,44.1106
66.8865,44.1665
66.8865,44.1665
67.1135,44.2976
67.3557,44.3979
67.6090,44.4658
67.8689,44.5000
68.1311,44.5000
68.3910,44.4658
68.6443,44.3979
68.8865,44.2976
68.8865,44.2976
69.1135,44.1665
69.1135,44.1665
69.1864,44.1106
68.2740,43.1983
68.3553,43.1646
68.4781,43.0826
68.5826,42.9781
68.6646,42.8553
68.6983,42.7740
69.6106,43.6864
69.6665,43.6135
69.6665,43.6135
69.7976,43.3865
69.7976,43.3865
69.8979,43.1443
69.9658,42.8910
70.0000,42.6311
70.0000,42.3689
69.9658,42.1090
69.8979,41.8557
69.7976,41.6135
69.6665,41.3865
69.6665,41.3865
69.6106,41.3136
68.6983,42.2260
68.6646,42.1447
68.5826,42.0219
68.4781,41.9174
68.3553,41.8354
68.2740,41.8017
69.1864,40.8894
69.1135,40.8335
68.8865,40.7024
68.6443,40.6021
68.3910,40.5342
68.1311,40.5000
67.8689,40.5000
67.6090,40.5342
67.3557,40.6021
67.1135,40.7024
66.8865,40.8335
66.8136,40.8894
67.7260,41.8017
67.6447,41.8354
67.5219,41.9174
67.4174,42.0219
67.3354,42.1447
67.3017,42.2260
66.3894,41.3136
66.3335,41.3865
66.2024,41.6135
66.1021,41.8557
66.0342,42.1090
66.0000,42.3689
29.5105,42.3689
29.5105,41.0940
29.5168,41.0600
29.5184,41.0255
29.5269,41.0064
29.5307,40.9859
29.5489,40.9566
29.5628,40.9250
29.5849,40.8984
29.5885,40.8925
29.5981,40.8825
29.6686,40.8120
29.7592,40.7499
29.8662,40.7248
29.9750,40.7400
30.0710,40.7934
30.0914,40.8120
30.2376,40.9582
30.4160,41.0878
30.6124,41.1879
30.8220,41.2560
31.0398,41.2905
31.0398,41.2905
31.2602,41.2905
31.2602,41.2905
31.4780,41.2560
31.6876,41.1879
31.8840,41.0878
32.0624,40.9582
32.2086,40.8120
32.2992,40.7499
32.4062,40.7248
32.5150,40.7400
32.6110,40.7934
32.6314,40.8120
32.7776,40.9582
32.9560,41.0878
33.1524,41.1879
33.3620,41.2560
33.5798,41.2905
33.5798,41.2905
33.8002,41.2905
33.8002,41.2905
34.0180,41.2560
34.2276,41.1879
34.4240,41.0878
34.6024,40.9582
34.7486,40.8120
34.8392,40.7499
34.9462,40.7248
35.0550,40.7400
35.1510,40.7934
35.1714,40.8120
35.3176,40.9582
35.4960,41.0878
35.6924,41.1879
35.9020,41.2560
36.1198,41.2905
36.1198,41.2905
36.3402,41.2905
36.3402,41.2905
36.5580,41.2560
36.7676,41.1879
36.9640,41.0878
37.1424,40.9582
37.2886,40.8120
37.3792,40.7499
37.4862,40.7248
37.5950,40.7400
37.6910,40.7934
37.7114,40.8120
37.8576,40.9582
38.0360,41.0878
38.2324,41.1879
38.4420,41.2560
38.6598,41.2905
38.6598,41.2905
38.8802,41.2905
38.8802,41.2905
39.0980,41.2560
39.3076,41.1879
39.5040,41.0878
39.6824,40.9582
39.8286,40.8120
39.9192,40.7499
40.0262,40.7248
40.1350,40.7400
40.2310,40.7934
40.2514,40.8120
40.3976,40.9582
40.5760,41.0878
40.7724,41.1879
40.9820,41.2560
41.1998,41.2905
41.1998,41.2905
41.4202,41.2905
41.4202,41.2905
41.6380,41.2560
41.8476,41.1879
42.0440,41.0878
42.2224,40.9582
42.3686,40.8120
42.4592,40.7499
42.5662,40.7248
42.6750,40.7400
42.7710,40.7934
42.7914,40.8120
42.9376,40.9582
43.1160,41.0878
43.3124,41.1879
43.5220,41.2560
43.7398,41.2905
43.7398,41.2905
43.9602,41.2905
43.9602,41.2905
44.1780,41.2560
44.3876,41.1879
44.5840,41.0878
44.7624,40.9582
44.9086,40.8120
44.9992,40.7499
45.1062,40.7248
45.2150,40.7400
45.3110,40.7934
45.3314,40.8120
45.4776,40.9582
45.6560,41.0878
45.8524,41.1879
46.0620,41.2560
46.2798,41.2905
46.2798,41.2905
46.5002,41.2905
46.5002,41.2905
46.7180,41.2560
46.9276,41.1879
47.1240,41.0878
47.3024,40.9582
47.4582,40.8024
47.4821,40.7696
47.5619,40.6940
47.6636,40.6525
47.7735,40.6504
47.8767,40.6882
47.9354,40.7339
48.0831,40.8816
48.2486,41.0019
48.2487,41.0019
48.4310,41.0948
48.4310,41.0948
48.6256,41.1580
48.6300,41.1587
48.6300,40.2941
48.7370,40.3559
48.8642,40.3900
48.9958,40.3900
49.1230,40.3559
49.2300,40.2941
49.2300,41.1587
49.2344,41.1580
49.4290,41.0948
49.4290,41.0948
49.6113,41.0019
49.6113,41.0019
49.7769,40.8816
49.9246,40.7339
50.0153,40.6718
50.1222,40.6466
50.2310,40.6618
50.3270,40.7153
50.3779,40.7696
50.4018,40.8024
50.5576,40.9582
50.7360,41.0878
50.9324,41.1879
51.1420,41.2560
51.3598,41.2905
51.3598,41.2905
51.5802,41.2905
51.5802,41.2905
51.7980,41.2560
52.0076,41.1879
52.2040,41.0878
52.3824,40.9582
52.5286,40.8120
52.6192,40.7499
52.7262,40.7248
52.8350,40.7400
52.9310,40.7934
52.9514,40.8120
53.0976,40.9582
53.2760,41.0878
53.4724,41.1879
53.6820,41.2560
53.8998,41.2905
53.8998,41.2905
54.1202,41.2905
54.1202,41.2905
54.3380,41.2560
54.5476,41.1879
54.7440,41.0878
54.8643,41.0004
54.9635,40.9533
55.0731,40.9452
55.1782,40.9772
55.2647,41.0450
55.2772,41.0603
55.3217,41.1183
55.3217,41.1183
55.4124,41.1879
55.4472,41.2145
55.4472,41.2145
55.4472,41.2145
55.5473,41.2560
55.5932,41.2750
55.7106,41.2905
57.3894,41.2905
57.5068,41.2750
57.6528,41.2145
57.7783,41.1183
57.8745,40.9928
57.9174,40.8894
57.9206,40.8816
57.9350,40.8468
57.9505,40.7294
57.9505,39.0506
57.9350,38.9332
57.8745,38.7872
57.8676,38.7781
57.7783,38.6617
57.7783,38.6617
57.6528,38.5655
57.6528,38.5655
57.5068,38.5050
57.5068,38.5050
57.3894,38.4895
55.7106,38.4895
55.5932,38.5050
55.4899,38.5477
55.4472,38.5655
55.4472,38.5655
55.4472,38.5655
55.3217,38.6617
55.3217,38.6617
55.2772,38.7197
55.1955,38.7931
55.0927,38.8320
54.9828,38.8311
54.8807,38.7907
54.8643,38.7796
54.7440,38.6922
54.7440,38.6922
54.7440,38.6922
54.7440,38.6922
54.5476,38.5921
54.5476,38.5921
54.5476,38.5921
54.5476,38.5921
54.3380,38.5240
54.3379,38.5240
54.3379,38.5240
54.1202,38.4895
54.1202,38.4895
53.8998,38.4895
53.8998,38.4895
53.6821,38.5240
53.4724,38.5921
53.4724,38.5921
53.2760,38.6922
53.2760,38.6922
53.2499,38.7112
53.0976,38.8218
53.0976,38.8218
53.0976,38.8218
52.9514,38.9680
52.8608,39.0301
52.7538,39.0552
52.6450,39.0400
52.5490,38.9866
52.5286,38.9680
52.3824,38.8218
52.3824,38.8218
52.2040,38.6922
52.2040,38.6922
52.2040,38.6922
52.2040,38.6922
52.0076,38.5921
52.0076,38.5921
52.0076,38.5921
52.0076,38.5921
51.7980,38.5240
51.7979,38.5240
51.7979,38.5240
51.5802,38.4895
51.5802,38.4895
51.3598,38.4895
51.3598,38.4895
51.1421,38.5240
50.9324,38.5921
50.9324,38.5921
50.7360,38.6922
50.7360,38.6922
50.7099,38.7112
50.5576,38.8218
50.5576,38.8218
50.5576,38.8218
50.4018,38.9776
50.3779,39.0104
50.2981,39.0860
50.1964,39.1275
50.0865,39.1296
49.9833,39.0918
49.9246,39.0461
49.7769,38.8984
49.6113,38.7781
49.6113,38.7781
49.4290,38.6852
49.4290,38.6852
49.2344,38.6220
49.2300,38.6213
49.2300,39.4859
49.1230,39.4241
48.9958,39.3900
48.8642,39.3900
48.7370,39.4241
48.6300,39.4859
48.6300,38.6213
48.6256,38.6220
48.4310,38.6852
48.4310,38.6852
48.2487,38.7781
48.2486,38.7781
48.0831,38.8984
47.9354,39.0461
47.8447,39.1082
47.7378,39.1334
47.6290,39.1182
47.5330,39.0647
47.4821,39.0104
47.4582,38.9776
47.3024,38.8218
47.1240,38.6922
47.1240,38.6922
47.1240,38.6922
47.1240,38.6922
46.9276,38.5921
46.9276,38.5921
46.9276,38.5921
46.9276,38.5921
46.7180,38.5240
46.7179,38.5240
46.7179,38.5240
46.5002,38.4895
46.5002,38.4895
46.2798,38.4895
46.2798,38.4895
46.0621,38.5240
45.8524,38.5921
45.8524,38.5921
45.6560,38.6922
45.6560,38.6922
45.6299,38.7112
45.4776,38.8218
45.4776,38.8218
45.4776,38.8218
45.3314,38.9680
45.2408,39.0301
45.1338,39.0552
45.0250,39.0400
44.9290,38.9866
44.9086,38.9680
44.7624,38.8218
44.7624,38.8218
44.5840,38.6922
44.5840,38.6922
44.5840,38.6922
44.5840,38.6922
44.3876,38.5921
44.3876,38.5921
44.3876,38.5921
44.3876,38.5921
44.1780,38.5240
44.1779,38.5240
44.1779,38.5240
43.9602,38.4895
43.9602,38.4895
43.7398,38.4895
43.7398,38.4895
43.5221,38.5240
43.3124,38.5921
43.3124,38.5921
43.1160,38.6922
43.1160,38.6922
43.0899,38.7112
42.9376,38.8218
42.9376,38.8218
42.9376,38.8218
42.7914,38.9680
42.7008,39.0301
42.5938,39.0552
42.4850,39.0400
42.3890,38.9866
42.3686,38.9680
42.2224,38.8218
42.2224,38.8218
42.0440,38.6922
42.0440,38.6922
42.0440,38.6922
42.0440,38.6922
41.8476,38.5921
41.8476,38.5921
41.8476,38.5921
41.8476,38.5921
41.6380,38.5240
41.6379,38.5240
41.6379,38.5240
41.4202,38.4895
41.4202,38.4895
41.1998,38.4895
41.1998,38.4895
40.9821,38.5240
40.7724,38.5921
40.7724,38.5921
40.5760,38.6922
40.5760,38.6922
40.5499,38.7112
40.3976,38.8218
40.3976,38.8218
40.3976,38.8218
40.2514,38.9680
40.1608,39.0301
40.0538,39.0552
39.9450,39.0400
39.8490,38.9866
39.8286,38.9680
39.6824,38.8218
39.6824,38.8218
39.5040,38.6922
39.5040,38.6922
39.5040,38.6922
39.5040,38.6922
39.3076,38.5921
39.3076,38.5921
39.3076,38.5921
39.3076,38.5921
39.0980,38.5240
39.0979,38.5240
39.0979,38.5240
38.8802,38.4895
38.8802,38.4895
38.6598,38.4895
38.6598,38.4895
38.4421,38.5240
38.2324,38.5921
38.2324,38.5921
38.0360,38.6922
38.0360,38.6922
38.0099,38.7112
37.8576,38.8218
37.8576,38.8218
37.8576,38.8218
37.7114,38.9680
37.6208,39.0301
37.5138,39.0552
37.4050,39.0400
37.3090,38.9866
37.2886,38.9680
37.1424,38.8218
37.1424,38.8218
36.9640,38.6922
36.9640,38.6922
36.9640,38.6922
36.9640,38.6922
36.7676,38.5921
36.7676,38.5921
36.7676,38.5921
36.7676,38.5921
36.5580,38.5240
36.5579,38.5240
36.5579,38.5240
36.3402,38.4895
36.3402,38.4895
36.1198,38.4895
36.1198,38.4895
35.9021,38.5240
35.6924,38.5921
35.6924,38.5921
35.4960,38.6922
35.4960,38.6922
35.4699,38.7112
35.3176,38.8218
35.3176,38.8218
35.3176,38.8218
35.1714,38.9680
35.0808,39.0301
34.9738,39.0552
34.8650,39.0400
34.7690,38.9866
34.7486,38.9680
34.6024,38.8218
34.6024,38.8218
34.4240,38.6922
34.4240,38.6922
34.4240,38.6922
34.4240,38.6922
34.2276,38.5921
34.2276,38.5921
34.2276,38.5921
34.2276,38.5921
34.0180,38.5240
34.0179,38.5240
34.0179,38.5240
33.8002,38.4895
33.8002,38.4895
33.5798,38.4895
33.5798,38.4895
33.3621,38.5240
33.1524,38.5921
33.1524,38.5921
32.9560,38.6922
32.9560,38.6922
32.9299,38.7112
32.7776,38.8218
32.7776,38.8218
32.7776,38.8218
32.6314,38.9680
32.5408,39.0301
32.4338,39.0552
32.3250,39.0400
32.2290,38.9866
32.2086,38.9680
32.0624,38.8218
32.0624,38.8218
31.8840,38.6922
31.8840,38.6922
31.8840,38.6922
31.8840,38.6922
31.6876,38.5921
31.6876,38.5921
31.6876,38.5921
31.6876,38.5921
31.4780,38.5240
31.4779,38.5240
31.4779,38.5240
31.2602,38.4895
31.2602,38.4895
31.0398,38.4895
31.0398,38.4895
30.8221,38.5240
30.6124,38.5921
30.6124,38.5921
30.4160,38.6922
30.4160,38.6922
30.3899,38.7112
30.2376,38.8218
30.2376,38.8218
30.2376,38.8218
30.0914,38.9680
30.0008,39.0301
29.8938,39.0552
29.7850,39.0400
29.6890,38.9866
29.6686,38.9680
29.5224,38.8218
29.5224,38.8218
29.3440,38.6922
29.3440,38.6922
29.3440,38.6922
29.3440,38.6922
29.1476,38.5921
29.1476,38.5921
29.1476,38.5921
29.1476,38.5921
28.9380,38.5240
28.9379,38.5240
28.9379,38.5240
28.7202,38.4895
28.7202,38.4895
28.4998,38.4895
28.4998,38.4895
28.2821,38.5240
28.0724,38.5921
28.0724,38.5921
27.8760,38.6922
27.8760,38.6922
27.8499,38.7112
27.6976,38.8218
27.6976,38.8218
27.6976,38.8218
27.5514,38.9680
27.4608,39.0301
27.3538,39.0552
27.2450,39.0400
27.1490,38.9866
27.1286,38.9680
26.9824,38.8218
26.9824,38.8218
26.8040,38.6922
26.8040,38.6922
26.8040,38.6922
26.8040,38.6922
26.6076,38.5921
26.6076,38.5921
26.6076,38.5921
26.6076,38.5921
26.3980,38.5240
26.3979,38.5240
26.3979,38.5240
26.1802,38.4895
26.1802,38.4895
25.9598,38.4895
25.9598,38.4895
25.7421,38.5240
25.5324,38.5921
25.5324,38.5921
25.3360,38.6922
25.3360,38.6922
25.3099,38.7112
25.1576,38.8218
25.1576,38.8218
25.1576,38.8218
25.0114,38.9680
24.9208,39.0301
24.8138,39.0552
24.7050,39.0400
24.6090,38.9866
24.5886,38.9680
24.4424,38.8218
24.4424,38.8218
24.2640,38.6922
24.2640,38.6922
24.2640,38.6922
24.2640,38.6922
24.0676,38.5921
24.0676,38.5921
24.0676,38.5921
24.0676,38.5921
23.8580,38.5240
23.8579,38.5240
23.8579,38.5240
23.6402,38.4895
23.6402,38.4895
23.4198,38.4895
23.4198,38.4895
23.2021,38.5240
22.9924,38.5921
22.9924,38.5921
22.7960,38.6922
22.7960,38.6922
22.7699,38.7112
22.6176,38.8218
22.6176,38.8218
22.6176,38.8218
22.4714,38.9680
22.3808,39.0301
22.2738,39.0552
22.1650,39.0400
22.0690,38.9866
22.0486,38.9680
21.9024,38.8218
21.9024,38.8218
21.7240,38.6922
21.7240,38.6922
21.7240,38.6922
21.7240,38.6922
21.5276,38.5921
21.5276,38.5921
21.5276,38.5921
21.5276,38.5921
21.3180,38.5240
21.3179,38.5240
21.3179,38.5240
21.1002,38.4895
21.1002,38.4895
20.8798,38.4895
20.8798,38.4895
20.6621,38.5240
20.4524,38.5921
20.4524,38.5921
20.2560,38.6922
20.2560,38.6922
20.2299,38.7112
20.0776,38.8218
20.0776,38.8218
20.0776,38.8218
19.9218,38.9776
19.9218,38.9776
19.9218,38.9776
19.8269,39.1082
19.7922,39.1560
19.7922,39.1560
19.6921,39.3524
19.6921,39.3524
19.6240,39.5621
19.5895,39.7798
19.5895,40.0002
19.6207,40.1970
19.6240,40.2180
19.6799,40.3900
19.6921,40.4276
19.6921,40.4276
19.7861,40.6121
19.7922,40.6240
19.9218,40.8024
20.0776,40.9582
20.2560,41.0878
20.4524,41.1879
20.6620,41.2560
20.8798,41.2905
20.8798,41.2905
21.1002,41.2905
21.1002,41.2905
21.3180,41.2560
21.5276,41.1879
21.7240,41.0878
21.9024,40.9582
22.0486,40.8120
22.1392,40.7499
22.2462,40.7248
22.3550,40.7400
22.4510,40.7934
22.4714,40.8120
22.6176,40.9582
22.7960,41.0878
22.9924,41.1879
23.2020,41.2560
23.4198,41.2905
23.4198,41.2905
23.6402,41.2905
23.6402,41.2905
23.8580,41.2560
24.0676,41.1879
24.2640,41.0878
24.4424,40.9582
24.5886,40.8120
24.6792,40.7499
24.7862,40.7248
24.8950,40.7400
24.9910,40.7934
25.0114,40.8120
25.1576,40.9582
25.3360,41.0878
25.5324,41.1879
25.7420,41.2560
25.9598,41.2905
25.9598,41.2905
26.1802,41.2905
26.1802,41.2905
26.3980,41.2560
26.6076,41.1879
26.8040,41.0878
26.9824,40.9582
27.1286,40.8120
27.1627,40.7887
27.1945,40.7622
27.2077,40.7578
27.2192,40.7499
27.2595,40.7405
27.2987,40.7273
27.3126,40.7280
27.3262,40.7248
27.3671,40.7305
27.4085,40.7324
27.4212,40.7380
27.4350,40.7400
27.4711,40.7601
27.5090,40.7768
27.5250,40.7900
27.5310,40.7934
27.5514,40.8120
27.6219,40.8825
27.6840,40.9732
27.7092,41.0801
27.7095,41.0940
27.7095,43.1987
27.7441,43.3727
27.7628,43.4178
27.7628,43.4178
27.7683,43.4310
27.8120,43.5365
27.8711,43.6250
27.9105,43.6840
31.4260,47.1995
31.4850,47.2389
31.5735,47.2980
31.6554,47.3320
31.6699,47.3380
31.6699,47.3380
31.7072,47.3534
31.7373,47.3659
31.9113,47.4005
31.9113,47.4005
68.0031,47.4005
68.1112,47.4207
68.2046,47.4785
68.2146,47.4881
68.6530,47.9265
68.7151,48.0172
68.7403,48.1241
68.7251,48.2329
68.6716,48.3289
68.5871,48.3991
68.4829,48.4341
68.4026,48.4344
68.2802,48.4183
68.1377,48.3995
68.1377,48.3995
67.8623,48.3995
67.8623,48.3995
67.5893,48.4354
67.3234,48.5067
67.0690,48.6121
66.8305,48.7498
66.6530,48.8860
66.6121,48.9174
66.4174,49.1121
66.3081,49.2544
66.2498,49.3305
66.1808,49.4500
66.1093,49.5334
66.0125,49.5854
65.9218,49.5995
50.5887,49.5995
50.4113,49.5995
50.3247,49.6167
50.2373,49.6341
50.0734,49.7020
49.9385,49.7922
49.9260,49.8005
49.9260,49.8005
48.2305,51.4960
48.2119,51.5238
48.2119,51.5238
48.2077,51.5301
48.1320,51.6435
48.1212,51.6695
48.1129,51.6896
48.1129,51.6897
48.0641,51.8073
48.0539,51.8588
48.0130,51.9608
47.9380,52.0412
47.8391,52.0890
47.7606,52.0995
19.9113,52.0995
19.8247,52.1167
19.7373,52.1341
19.5735,52.2020
19.5735,52.2020
19.4260,52.3005
19.4260,52.3005
19.4260,52.3005
19.4260,52.3005
19.4260,52.3005
18.1305,53.5960
18.1282,53.5995
18.1282,53.5995
18.0320,53.7434
17.9980,53.8254
17.9730,53.8858
17.9641,53.9073
17.9334,54.0618
17.9311,54.0735
17.9295,54.0813
17.9295,62.4187
17.9485,62.5143
17.9641,62.5927
17.9813,62.6341
18.0320,62.7565
18.0908,62.8446
18.1305,62.9040
18.1696,62.9431
18.2317,63.0337
18.2568,63.1407
18.2546,63.1935
18.2295,63.3840
18.2295,63.6160
18.2497,63.7694
18.2546,63.8065
18.2598,63.8461
18.3199,64.0703
18.4087,64.2848
18.5247,64.4857
18.5247,64.4858
18.6660,64.6699
18.6660,64.6699
18.8301,64.8340
18.8301,64.8340
18.8301,64.8340
19.0142,64.9753
19.0142,64.9753
19.0143,64.9753
19.2152,65.0913
19.3325,65.1399
19.4297,65.1801
19.4297,65.1801
19.4297,65.1801
19.6539,65.2402
19.8360,65.2642
19.8840,65.2705
19.8840,65.2705
20.1160,65.2705
20.3065,65.2454
20.4162,65.2513
20.5164,65.2965
20.5569,65.3304
20.7156,65.4891
20.7777,65.5797
20.8028,65.6867
20.7876,65.7955
20.7342,65.8915
20.6496,65.9617
20.5455,65.9966
20.5041,65.9995
14.2995,65.9995
14.1915,65.9793
14.0981,65.9215
14.0318,65.8338
14.0018,65.7281
14.0005,65.7005
14.0005,24.9761
15.3995,24.9761
15.3995,27.6239
15.4023,27.6655
15.4023,27.6655
15.4470,27.8450
15.4470,27.8450
15.5292,28.0108
15.6451,28.1549
15.7892,28.2708
15.9550,28.3530
15.9550,28.3530
15.9550,28.3530
16.1345,28.3977
16.1345,28.3977
16.1345,28.3977
16.1760,28.4005
16.1761,28.4005
18.8239,28.4005
18.8240,28.4005
18.8655,28.3977
19.0450,28.3530
19.2108,28.2708
19.3549,28.1549
19.4708,28.0108
19.5530,27.8450
19.5977,27.6655
19.6005,27.6240
19.6005,27.4995
19.6207,27.3915
19.6785,27.2981
19.7662,27.2318
19.8719,27.2018
19.8995,27.2005
77.8032,27.2005
77.9112,27.2207
78.0046,27.2785
78.0146,27.2881
90.0119,39.2854
90.0740,39.3761
90.0992,39.4830
90.0995,39.4968
90.0995,41.1853
90.0793,41.2933
90.0215,41.3868
90.0119,41.3968
89.8936,41.5151
89.7594,41.6998
89.6558,41.9032
89.5852,42.1203
89.5495,42.3458
89.5495,42.5742
89.5852,42.7997
89.6558,43.0168
89.7594,43.2202
89.8087,43.2880
89.8558,43.3872
89.8639,43.4968
89.8319,43.6019
89.8083,43.6399
89.7830,43.6747
89.7217,43.7217
89.6255,43.8472
89.5837,43.9479
89.5627,43.9767
89.5483,43.9903
89.5374,44.0070
89.5086,44.0277
89.4828,44.0521
89.4644,44.0595
89.4482,44.0712
89.4139,44.0801
89.3810,44.0935
89.3611,44.0938
89.3419,44.0988
89.3212,44.0995
88.9968,44.0995
88.8888,44.0793
88.7954,44.0215
88.7854,44.0119
88.1062,43.3327
88.0441,43.2421
88.0190,43.1351
88.0289,43.0439
88.0646,42.9107
88.1005,42.6377
88.1005,42.3623
88.0983,42.3458
88.0898,42.2812
88.0646,42.0893
87.9933,41.8234
87.8879,41.5690
87.7502,41.3305
87.5826,41.1121
87.3879,40.9174
87.1695,40.7498
86.9310,40.6121
86.8903,40.5952
86.6766,40.5067
86.6516,40.5000
86.4107,40.4354
86.3197,40.4235
86.1377,40.3995
86.1377,40.3995
85.8623,40.3995
85.8623,40.3995
85.5893,40.4354
85.3234,40.5067
85.0690,40.6121
84.8305,40.7498
84.6121,40.9174
84.4174,41.1121
84.2498,41.3305
84.1121,41.5690
84.0067,41.8234
83.9354,42.0893
83.9017,42.3458
83.8995,42.3623
83.8995,42.6377
83.9354,42.9107
83.9956,43.1351
84.0067,43.1766
84.1019,43.4065
84.1121,43.4310
84.2498,43.6695
84.4174,43.8879
84.6121,44.0826
84.8305,44.2502
84.9151,44.2991
84.9985,44.3706
85.0505,44.4674
85.0640,44.5764
85.0372,44.6830
84.9737,44.7727
84.9151,44.8170
84.8865,44.8335
84.8136,44.8894
85.7260,45.8017
85.6447,45.8354
85.5219,45.9174
85.4174,46.0219
85.3354,46.1447
85.3017,46.2260
84.3894,45.3136
84.3335,45.3865
84.2024,45.6135
84.1021,45.8557
84.0342,46.1090
84.0000,46.3689
84.0000,46.6311
84.0342,46.8910
84.1021,47.1443
84.2024,47.3865
84.3335,47.6135
84.3894,47.6864
85.3017,46.7740
85.3354,46.8553
85.4174,46.9781
85.5219,47.0826
85.6447,47.1646
85.7260,47.1983
84.8136,48.1106
84.8865,48.1665
84.8865,48.1665
85.1135,48.2976
85.3557,48.3979
85.6090,48.4658
85.8689,48.5000
86.1311,48.5000
86.3910,48.4658
86.6443,48.3979
86.8865,48.2976
86.8865,48.2976
87.1135,48.1665
87.1135,48.1665
87.1864,48.1106
86.2740,47.1983
86.3553,47.1646
86.4781,47.0826
86.5826,46.9781
86.6646,46.8553
86.6983,46.7740
87.6106,47.6864
87.6665,47.6135
87.6665,47.6135
87.7976,47.3865
87.7976,47.3865
87.8979,47.1443
87.9658,46.8910
88.0000,46.6311
88.0000,46.3689
87.9801,46.2176
87.9860,46.1079
88.0311,46.0077
88.1094,45.9306
88.2103,45.8870
88.3201,45.8827
88.3349,45.8853
88.4113,45.9005
88.4113,45.9005
88.4113,45.9005
89.3212,45.9005
89.4292,45.9207
89.5226,45.9785
89.5888,46.0662
89.5974,46.0851
89.6255,46.1528
89.6255,46.1528
89.6255,46.1528
89.7217,46.2783
89.7217,46.2783
89.8398,46.3689
89.8472,46.3745
89.8472,46.3745
89.8472,46.3745
89.9717,46.4261
89.9932,46.4350
90.1106,46.4505
91.8894,46.4505
92.0068,46.4350
92.1528,46.3745
92.2783,46.2783
92.3745,46.1528
92.4350,46.0068
92.4505,45.8894
92.4505,44.1106
92.4350,43.9932
92.3745,43.8472
92.2783,43.7217
92.2512,43.7010
92.1778,43.6192
92.1389,43.5164
92.1398,43.4065
92.1802,43.3044
92.1913,43.2880
92.2406,43.2202
92.3442,43.0168
92.4148,42.7997
92.4505,42.5742
92.4505,42.3458
92.4148,42.1203
92.3442,41.9032
92.2406,41.6998
92.1064,41.5151
91.9881,41.3968
91.9260,41.3061
91.9008,41.1991
91.9005,41.1853
91.9005,38.9113
91.9005,38.9113
91.8979,38.8984
91.8659,38.7373
91.8320,38.6554
91.7980,38.5735
91.6995,38.4260
91.5740,38.3005
91.5740,38.3005
79.4424,26.1689
88.4000,26.1689
88.4000,26.4311
88.4342,26.6910
88.5021,26.9443
88.6024,27.1865
88.7335,27.4135
88.7894,27.4864
89.6749,26.6008
89.7043,26.6718
89.7903,26.8004
89.8996,26.9097
90.0282,26.9957
90.0992,27.0251
89.2136,27.9106
89.2865,27.9665
89.2865,27.9665
89.5135,28.0976
89.7557,28.1979
90.0090,28.2658
90.2689,28.3000
90.5311,28.3000
90.7910,28.2658
91.0443,28.1979
91.2865,28.0976
91.2865,28.0976
91.5135,27.9665
91.5135,27.9665
91.5864,27.9106
90.7008,27.0251
90.7718,26.9957
90.9004,26.9097
91.0097,26.8004
91.0957,26.6718
91.1251,26.6008
92.0106,27.4864
92.0665,27.4135
92.0665,27.4135
92.1976,27.1865
92.1976,27.1865
92.2979,26.9443
92.3658,26.6910
92.4000,26.4311
92.4000,26.1689
92.3658,25.9090
92.2979,25.6557
92.1976,25.4135
92.0665,25.1865
92.0665,25.1865
92.0106,25.1136
91.1251,25.9992
91.0957,25.9282
91.0097,25.7996
90.9004,25.6903
90.7718,25.6043
90.7008,25.5749
91.5864,24.6894
91.5135,24.6335
91.2865,24.5024
91.0443,24.4021
90.7910,24.3342
90.5311,24.3000
90.2689,24.3000
90.0090,24.3342
89.7557,24.4021
89.5135,24.5024
89.2865,24.6335
89.2136,24.6894
90.0992,25.5749
90.0282,25.6043
89.8996,25.6903
89.7903,25.7996
89.7043,25.9282
89.6749,25.9992
88.7894,25.1136
88.7335,25.1865
88.6024,25.4135
88.5021,25.6557
88.4342,25.9090
88.4000,26.1689
79.4424,26.1689
78.8740,25.6005
78.8263,25.5687
78.8263,25.5687
78.8150,25.5611
78.7265,25.5020
78.6446,25.4680
78.6301,25.4620
78.6301,25.4620
78.5627,25.4341
78.3887,25.3995
78.3887,25.3995
78.3887,25.3995
19.8995,25.3995
19.8715,25.3943
19.8431,25.3941
19.8180,25.3843
19.7915,25.3793
19.7673,25.3643
19.7408,25.3539
19.7210,25.3357
19.6981,25.3215
19.6809,25.2988
19.6600,25.2795
19.6481,25.2553
19.6318,25.2338
19.6241,25.2064
19.6115,25.1809
19.6066,25.1451
19.6018,25.1281
19.6016,25.1266
19.6005,25.1136
19.6005,24.9760
19.5977,24.9345
19.5530,24.7550
19.4708,24.5892
19.3549,24.4451
19.2108,24.3292
19.0450,24.2470
19.0450,24.2470
18.8655,24.2023
18.8655,24.2023
18.8240,24.1995
16.1760,24.1995
16.1345,24.2023
16.1345,24.2023
15.9550,24.2470
15.7892,24.3292
15.6451,24.4451
15.6451,24.4451
15.5292,24.5892
15.4470,24.7550
15.4023,24.9345
15.4023,24.9345
15.3995,24.9761
14.0005,24.9761
14.0005,14.7995
14.0207,14.6915
14.0785,14.5981
14.1662,14.5318
14.2719,14.5018
14.2995,14.5005
93.7005,14.5005
Z" /> 
<path style="fill:#FFFFFF; fill-opacity:1.0000; stroke:none;fill-rule:evenodd;"
d="M 27.3545,55.9687
27.3831,55.9676
27.4084,55.9762
27.4350,55.9800
27.4600,55.9939
27.4870,56.0031
27.5296,56.0326
27.5310,56.0334
27.5319,56.0342
27.5324,56.0346
27.5423,56.0429
27.6976,56.1982
27.8760,56.3278
27.8896,56.3347
27.9128,56.3543
27.9825,56.4392
28.0168,56.5436
28.0111,56.6534
27.9661,56.7536
27.9319,56.7946
24.3005,60.4260
24.2611,60.4850
24.2611,60.4850
24.2020,60.5734
24.1680,60.6554
24.1341,60.7373
24.0995,60.9113
24.0995,61.8119
24.0793,61.9199
24.0215,62.0133
23.9825,62.0491
23.8301,62.1660
23.8301,62.1660
23.6660,62.3301
23.6660,62.3301
23.5247,62.5142
23.5247,62.5143
23.4087,62.7152
23.3199,62.9297
23.2598,63.1539
23.2295,63.3840
23.2295,63.6160
23.2497,63.7694
23.2546,63.8065
23.2598,63.8461
23.3199,64.0703
23.3678,64.1861
23.3770,64.2299
23.3893,64.2729
23.3883,64.2833
23.3905,64.2936
23.3833,64.3378
23.3792,64.3823
23.3745,64.3917
23.3728,64.4020
23.3501,64.4406
23.3302,64.4807
23.3224,64.4877
23.3171,64.4968
23.2820,64.5246
23.2490,64.5547
23.2392,64.5585
23.2310,64.5650
23.1882,64.5782
23.1465,64.5944
23.1316,64.5958
23.1260,64.5975
23.0916,64.5995
22.4968,64.5995
22.3888,64.5793
22.2954,64.5215
22.2854,64.5119
21.8304,64.0569
21.7683,63.9663
21.7432,63.8593
21.7454,63.8065
21.7705,63.6160
21.7705,63.3840
21.7402,63.1539
21.6801,62.9297
21.6778,62.9240
21.6399,62.8325
21.5913,62.7152
21.4753,62.5143
21.4753,62.5142
21.4753,62.5142
21.3340,62.3301
21.3340,62.3301
21.3340,62.3301
21.1699,62.1660
21.1699,62.1660
20.9858,62.0247
20.9857,62.0247
20.8863,61.9673
20.7848,61.9087
20.5703,61.8199
20.4412,61.7853
20.3461,61.7598
20.2615,61.7487
20.1160,61.7295
20.1160,61.7295
20.0295,61.7295
19.9215,61.7093
19.8281,61.6515
19.7618,61.5638
19.7318,61.4581
19.7305,61.4305
19.7305,56.5329
19.7507,56.4248
19.8085,56.3314
19.8962,56.2652
20.0019,56.2351
20.1113,56.2453
20.2052,56.2910
20.2560,56.3278
20.4524,56.4279
20.6620,56.4960
20.8798,56.5305
20.8798,56.5305
21.1002,56.5305
21.1002,56.5305
21.3180,56.4960
21.5276,56.4279
21.7240,56.3278
21.9024,56.1982
22.0486,56.0520
22.1392,55.9899
22.2462,55.9648
22.3550,55.9800
22.4510,56.0334
22.4714,56.0520
22.6176,56.1982
22.7960,56.3278
22.9924,56.4279
23.2020,56.4960
23.4198,56.5305
23.4198,56.5305
23.6402,56.5305
23.6402,56.5305
23.8580,56.4960
24.0676,56.4279
24.2640,56.3278
24.4424,56.1982
24.5886,56.0520
24.6792,55.9899
24.7862,55.9648
24.8950,55.9800
24.9910,56.0334
25.0114,56.0520
25.1576,56.1982
25.3360,56.3278
25.5324,56.4279
25.7420,56.4960
25.9598,56.5305
25.9598,56.5305
26.1802,56.5305
26.1802,56.5305
26.3980,56.4960
26.6076,56.4279
26.8040,56.3278
26.9824,56.1982
27.1286,56.0520
27.1522,56.0359
27.1725,56.0158
27.1971,56.0051
27.2192,55.9899
27.2470,55.9834
27.2733,55.9720
27.3001,55.9709
27.3262,55.9648
Z" /> 
</g>
<g style="fill:#000000; fill-opacity:1.0000; stroke:none;">
<circle cx="91.0000" cy="45.0000" r="0.1750" /> 
</g>
<g style="fill:#000000; fill-opacity:1.0000; stroke:none;">
<circle cx="91.0000" cy="42.4600" r="0.1750" /> 
</g>
<g style="fill:#000000; fill-opacity:1.0000; stroke:none;">
<circle cx="76.5400" cy="54.0000" r="0.1750" /> 
</g>
<g style="fill:#000000; fill-opacity:1.0000; stroke:none;">
<circle cx="74.0000" cy="54.0000" r="0.1750" /> 
</g>
<g style="fill:#000000; fill-opacity:1.0000; stroke:none;">
<circle cx="71.4600" cy="54.0000" r="0.1750" /> 
</g>
<g style="fill:#000000; fill-opacity:1.0000; stroke:none;">
<circle cx="86.0000" cy="46.5000" r="0.1750" /> 
</g>
<g style="fill:#000000; fill-opacity:1.0000; stroke:none;">
<circle cx="86.0000" cy="42.5000" r="0.1750" /> 
</g>
<g style="fill:#000000; fill-opacity:1.0000; stroke:none;">
<circle cx="68.0000" cy="42.5000" r="0.1750" /> 
</g>
<g style="fill:#000000; fill-opacity:1.0000; stroke:none;">
<circle cx="68.0000" cy="50.5000" r="0.1750" /> 
</g>
<g style="fill:#000000; fill-opacity:1.0000; stroke:none;">
<circle cx="56.5500" cy="39.8900" r="0.1750" /> 
</g>
<g style="fill:#000000; fill-opacity:1.0000; stroke:none;">
<circle cx="54.0100" cy="39.8900" r="0.1750" /> 
</g>
<g style="fill:#000000; fill-opacity:1.0000; stroke:none;">
<circle cx="51.4700" cy="39.8900" r="0.1750" /> 
</g>
<g style="fill:#000000; fill-opacity:1.0000; stroke:none;">
<circle cx="48.9300" cy="39.8900" r="0.1750" /> 
</g>
<g style="fill:#000000; fill-opacity:1.0000; stroke:none;">
<circle cx="46.3900" cy="39.8900" r="0.1750" /> 
</g>
<g style="fill:#000000; fill-opacity:1.0000; stroke:none;">
<circle cx="43.8500" cy="39.8900" r="0.1750" /> 
</g>
<g style="fill:#000000; fill-opacity:1.0000; stroke:none;">
<circle cx="41.3100" cy="39.8900" r="0.1750" /> 
</g>
<g style="fill:#000000; fill-opacity:1.0000; stroke:none;">
<circle cx="38.7700" cy="39.8900" r="0.1750" /> 
</g>
<g style="fill:#000000; fill-opacity:1.0000; stroke:none;">
<circle cx="36.2300" cy="39.8900" r="0.1750" /> 
</g>
<g style="fill:#000000; fill-opacity:1.0000; stroke:none;">
<circle cx="33.6900" cy="39.8900" r="0.1750" /> 
</g>
<g style="fill:#000000; fill-opacity:1.0000; stroke:none;">
<circle cx="31.1500" cy="39.8900" r="0.1750" /> 
</g>
<g style="fill:#000000; fill-opacity:1.0000; stroke:none;">
<circle cx="28.6100" cy="39.8900" r="0.1750" /> 
</g>
<g style="fill:#000000; fill-opacity:1.0000; stroke:none;">
<circle cx="26.0700" cy="39.8900" r="0.1750" /> 
</g>
<g style="fill:#000000; fill-opacity:1.0000; stroke:none;">
<circle cx="23.5300" cy="39.8900" r="0.1750" /> 
</g>
<g style="fill:#000000; fill-opacity:1.0000; stroke:none;">
<circle cx="20.9900" cy="39.8900" r="0.1750" /> 
</g>
<g style="fill:#000000; fill-opacity:1.0000; stroke:none;">
<circle cx="20.9900" cy="55.1300" r="0.1750" /> 
</g>
<g style="fill:#000000; fill-opacity:1.0000; stroke:none;">
<circle cx="23.5300" cy="55.1300" r="0.1750" /> 
</g>
<g style="fill:#000000; fill-opacity:1.0000; stroke:none;">
<circle cx="26.0700" cy="55.1300" r="0.1750" /> 
</g>
<g style="fill:#000000; fill-opacity:1.0000; stroke:none;">
<circle cx="28.6100" cy="55.1300" r="0.1750" /> 
</g>
<g style="fill:#000000; fill-opacity:1.0000; stroke:none;">
<circle cx="31.1500" cy="55.1300" r="0.1750" /> 
</g>
<g style="fill:#000000; fill-opacity:1.0000; stroke:none;">
<circle cx="33.6900" cy="55.1300" r="0.1750" /> 
</g>
<g style="fill:#000000; fill-opacity:1.0000; stroke:none;">
<circle cx="36.2300" cy="55.1300" r="0.1750" /> 
</g>
<g style="fill:#000000; fill-opacity:1.0000; stroke:none;">
<circle cx="38.7700" cy="55.1300" r="0.1750" /> 
</g>
<g style="fill:#000000; fill-opacity:1.0000; stroke:none;">
<circle cx="41.3100" cy="55.1300" r="0.1750" /> 
</g>
<g style="fill:#000000; fill-opacity:1.0000; stroke:none;">
<circle cx="43.8500" cy="55.1300" r="0.1750" /> 
</g>
<g style="fill:#000000; fill-opacity:1.0000; stroke:none;">
<circle cx="46.3900" cy="55.1300" r="0.1750" /> 
</g>
<g style="fill:#000000; fill-opacity:1.0000; stroke:none;">
<circle cx="48.9300" cy="55.1300" r="0.1750" /> 
</g>
<g style="fill:#000000; fill-opacity:1.0000; stroke:none;">
<circle cx="51.4700" cy="55.1300" r="0.1750" /> 
</g>
<g style="fill:#000000; fill-opacity:1.0000; stroke:none;">
<circle cx="54.0100" cy="55.1300" r="0.1750" /> 
</g>
<g style="fill:#000000; fill-opacity:1.0000; stroke:none;">
<circle cx="56.5500" cy="55.1300" r="0.1750" /> 
</g>
<g style="fill:#000000; fill-opacity:1.0000; stroke:none;">
<circle cx="20.0000" cy="63.5000" r="0.1750" /> 
</g>
<g style="fill:#000000; fill-opacity:1.0000; stroke:none;">
<circle cx="25.0000" cy="63.5000" r="0.1750" /> 
</g>
<g style="fill:#000000; fill-opacity:1.0000; stroke:none;">
<circle cx="30.0000" cy="63.5000" r="0.1750" /> 
</g>
<g style="fill:#000000; fill-opacity:1.0000; stroke:none;">
<circle cx="50.0000" cy="63.5000" r="0.1750" /> 
</g>
<g style="fill:#000000; fill-opacity:1.0000; stroke:none;">
<circle cx="55.0000" cy="63.5000" r="0.1750" /> 
</g>
<g style="fill:#000000; fill-opacity:1.0000; stroke:none;">
<circle cx="60.0000" cy="63.5000" r="0.1750" /> 
</g>
<g style="fill:#000000; fill-opacity:1.0000; stroke:none;">
<circle cx="17.5000" cy="26.3000" r="0.1750" /> 
</g>
<g style="fill:#000000; fill-opacity:1.0000; stroke:none;">
<circle cx="90.4000" cy="26.3000" r="0.1750" /> 
</g> 
</svg>
